<!-- Generator: Adobe Illustrator 24.1.1, SVG Export Plug-In  -->
<svg version="1.1" xmlns="http://www.w3.org/2000/svg" xmlns:xlink="http://www.w3.org/1999/xlink" x="0px" y="0px" width="97.8px"
	 height="200px" viewBox="0 0 97.8 200" style="enable-background:new 0 0 97.8 200;" xml:space="preserve">
<style type="text/css">
	.st0{fill:#616764;}
</style>
<defs>
</defs>
<g>
	<path class="st0" d="M59.9,0.1v199.8l37.9-12.3V33.3C97.8,33.3,59.9,0.1,59.9,0.1z M94.3,160.5l-31.6,3.7v-11.8l31.6-1.3V160.5z
		 M94.3,146.4l-31.6,0.2v-6.8l31.6,1.2V146.4L94.3,146.4z M94.3,136.9l-31.6-2.2v-5.9l31.6,3.3V136.9z M94.3,127.4l-31.6-4.5V117
		l31.6,5.6V127.4z M94.3,117.7l-31.6-6.9v-5.6l31.6,8C94.3,113.2,94.3,117.7,94.3,117.7z M94.3,108.5l-31.6-9.1v-5.9l31.6,10.3
		V108.5z M94.3,99L62.7,87.6v-5.9l31.6,12.6V99z M94.3,89.5L62.7,75.8v-5.9l31.6,15V89.5z M94.3,80.1L62.7,64v-5.9l31.6,17.3V80.1z
		 M94.3,70.6L62.7,52.2v-5.9l31.6,19.6V70.6z M94.3,61.5L62.7,40.8v-6.3l31.6,21.9V61.5z M94.3,51.7L62.7,28.6v-5.9l31.6,24.3
		C94.3,46.9,94.3,51.7,94.3,51.7z M94.3,42.2L62.7,16.8v-5.9l31.6,26.6V42.2z"/>
	<path class="st0" d="M0,57.9v131.8L58.8,200V0L0,26.9C0,26.9,0,57.9,0,57.9z M48.7,11.7l5.4-2.4v6l-5.4,2.3V11.7z M48.7,23.4
		l5.4-2.2v6l-5.4,2.1V23.4z M48.7,35.1l5.4-2v6L48.7,41V35.1z M48.7,46.8l5.4-1.8v6l-5.4,1.7V46.8z M48.7,58.6l5.4-1.6v6l-5.4,1.5
		V58.6z M48.7,70.3l5.4-1.3v6l-5.4,1.2V70.3z M48.7,82l5.4-1.1v6l-5.4,1V82z M48.7,93.1l5.4-0.9v6.7l-5.4,0.8V93.1z M48.7,105.3
		l5.4-0.7v6.1l-5.4,0.6C48.7,111.4,48.7,105.3,48.7,105.3z M48.7,117.2l5.4-0.5v6l-5.4,0.4V117.2z M48.7,128.9l5.4-0.3v6l-5.4,0.2
		C48.7,134.8,48.7,128.9,48.7,128.9z M48.7,140.6l5.4-0.1v5.3h-5.4V140.6z M48.7,152.3l5.4,0.1v12l-5.4-0.3V152.3z M38.5,16.2
		l5.1-2.3v5.8l-5.1,2.2C38.5,21.9,38.5,16.2,38.5,16.2z M38.5,27.5l5.1-2.1v5.8l-5.1,2V27.5z M38.5,38.8l5.1-1.9v5.8l-5.1,1.8V38.8z
		 M38.5,50.2l5.1-1.7v5.8l-5.1,1.6V50.2z M38.5,61.5l5.1-1.5v5.8l-5.1,1.4C38.5,67.2,38.5,61.5,38.5,61.5z M38.5,72.8l5.1-1.3v5.8
		l-5.1,1.2C38.5,78.6,38.5,72.8,38.5,72.8z M38.5,84.1l5.1-1.1v5.8l-5.1,1C38.5,89.9,38.5,84.1,38.5,84.1z M38.5,94.8l5.1-0.9v6.5
		l-5.1,0.8C38.5,101.2,38.5,94.8,38.5,94.8z M38.5,106.7l5.1-0.7v6l-5.1,0.6C38.5,112.5,38.5,106.7,38.5,106.7z M38.5,118.1l5.1-0.5
		v5.8l-5.1,0.4C38.5,123.9,38.5,118.1,38.5,118.1z M38.5,129.4l5.1-0.3v5.8l-5.1,0.2C38.5,135.2,38.5,129.4,38.5,129.4z M38.5,140.8
		l5.1-0.1v5.2h-5.1V140.8z M38.5,152l5.1,0.1v11.7l-5.1-0.3V152z M29.5,20.3l4.3-1.9v5.6l-4.3,1.8C29.5,25.7,29.5,20.3,29.5,20.3z
		 M29.5,31.2l4.3-1.7v5.6l-4.3,1.6C29.5,36.7,29.5,31.2,29.5,31.2z M29.5,42.2l4.3-1.6v5.5l-4.3,1.5C29.5,47.7,29.5,42.2,29.5,42.2z
		 M29.5,53.2l4.3-1.4v5.6l-4.3,1.3V53.2z M29.5,64.1l4.3-1.2v5.6l-4.3,1.1V64.1z M29.5,75.1l4.3-1.1v5.6l-4.3,1
		C29.5,80.6,29.5,75.1,29.5,75.1z M29.5,86.1l4.3-0.9v5.6l-4.3,0.8C29.5,91.6,29.5,86.1,29.5,86.1z M29.5,96.5l4.3-0.7v6.2l-4.3,0.7
		C29.5,102.5,29.5,96.5,29.5,96.5z M29.5,107.9l4.3-0.6v5.6l-4.3,0.5V107.9z M29.5,119l4.3-0.4v5.6l-4.3,0.3
		C29.5,124.5,29.5,119,29.5,119z M29.5,130l4.3-0.2v5.6l-4.3,0.1V130z M29.5,140.9l4.3-0.1v5h-4.3V140.9z M29.5,151.9l4.3,0.1v11.1
		l-4.3-0.3V151.9z M20.1,24.4l4.4-2v5.5l-4.4,1.9C20.1,29.7,20.1,24.4,20.1,24.4z M20.1,35l4.4-1.8v5.5l-4.4,1.7V35z M20.1,45.6
		l4.4-1.6v5.5l-4.4,1.5V45.6z M20.1,56.2l4.4-1.4v5.5l-4.4,1.4V56.2z M20.1,66.8l4.4-1.3V71l-4.4,1.2V66.8z M20.1,77.4l4.4-1.1v5.5
		l-4.4,1V77.4z M20.1,88l4.4-0.9v5.5l-4.4,0.8V88z M20.1,98l4.4-0.8v6.1l-4.4,0.7C20.1,104,20.1,98,20.1,98z M20.1,109.1l4.4-0.6
		v5.6l-4.4,0.5V109.1z M20.1,119.8l4.4-0.4v5.5l-4.4,0.3V119.8z M20.1,130.5l4.4-0.2v5.5l-4.4,0.2V130.5z M20.1,141.1l4.4-0.1v4.8
		h-4.4V141.1L20.1,141.1z M20.1,151.6l4.4,0.1v10.9l-4.4-0.3V151.6z M11.7,28.1l4.1-1.8v5.2l-4.1,1.7V28.1z M11.7,38.4l4.1-1.7v5.2
		l-4.1,1.6C11.7,43.5,11.7,38.4,11.7,38.4z M11.7,48.7l4.1-1.5v5.2l-4.1,1.4C11.7,53.8,11.7,48.7,11.7,48.7z M11.7,59l4.1-1.3v5.2
		l-4.1,1.3V59z M11.7,69.2l4.1-1.2v5.2l-4.1,1.1V69.2z M11.7,79.5l4.1-1v5.2l-4.1,1V79.5z M11.7,89.8l4.1-0.9v5.2l-4.1,0.8V89.8z
		 M11.7,99.5l4.1-0.7v5.8l-4.1,0.6C11.7,105.2,11.7,99.5,11.7,99.5z M11.7,110.3l4.1-0.5v5.3l-4.1,0.5V110.3z M11.7,120.7l4.1-0.4
		v5.2l-4.1,0.3V120.7z M11.7,131l4.1-0.2v5.2l-4.1,0.1V131z M11.7,141.3l4.1-0.1v4.7h-4.1V141.3z M11.7,151.5l4.1,0.1V162l-4.1-0.2
		V151.5z M3.8,31.6l4-1.8V35l-4,1.7V31.6z M3.8,41.5l4-1.6v5.1l-4,1.5C3.8,46.6,3.8,41.5,3.8,41.5z M3.8,51.5l4-1.4v5.1l-4,1.4V51.5
		z M3.8,61.5l4-1.3v5.1l-4,1.2C3.8,66.6,3.8,61.5,3.8,61.5z M3.8,71.5l4-1.1v5.2l-4,1.1V71.5z M3.8,81.5l4-1v5.1l-4,0.9V81.5z
		 M3.8,91.4l4-0.8v5.1l-4,0.8C3.8,96.5,3.8,91.4,3.8,91.4z M3.8,100.8l4-0.7v5.7l-4,0.6V100.8z M3.8,111.3l4-0.5v5.2l-4,0.5
		C3.8,116.5,3.8,111.3,3.8,111.3z M3.8,121.4l4-0.4v5.1l-4,0.3C3.8,126.4,3.8,121.4,3.8,121.4z M3.8,131.3l4-0.2v5.1l-4,0.1V131.3z
		 M3.8,141.4l4-0.1v4.5h-4V141.4L3.8,141.4z M3.8,151.3l4,0.1v10.3l-4-0.2V151.3z"/>
</g>
</svg>
