<!-- Generator: Adobe Illustrator 24.1.1, SVG Export Plug-In  -->
<svg version="1.1" xmlns="http://www.w3.org/2000/svg" xmlns:xlink="http://www.w3.org/1999/xlink" x="0px" y="0px" width="132px"
	 height="130.2px" viewBox="0 0 132 130.2" style="enable-background:new 0 0 132 130.2;" xml:space="preserve">
<style type="text/css">
	.st0{fill:#616764;}
</style>
<defs>
</defs>
<g>
	<path class="st0" d="M132,45.8l-1.6-14.9c0-0.5-0.5-1-1-1l-23.1-2.1L87.2,0.5C87,0.2,86.7,0,86.2,0L69.8,1l-39,7.9h-0.4l-0.2,0.2
		L30,9.3l-0.2,0.2L0,84.2v0.7l0.2,0.2l0.2,0.2L59.7,130h0.4c0.2,0,0.3,0.2,0.5,0.2s0.3,0,0.5-0.2L80,115.7c0.2-0.2,0.3-0.3,0.3-0.6
		l2.4-14.1l33.7-8.6h0.3c0.3-0.2,0.5-0.3,0.5-0.6l8.6-31.6l6.2-13.8L132,45.8L132,45.8z M128.5,45.5l-40.2,11l18-26.1L128.5,45.5z
		 M53.3,72.5l-6.7,34l-11-19.9C35.6,86.6,53.3,72.5,53.3,72.5z M33.9,85.3L7.5,84l42.8-11.8L33.9,85.3z M55.5,71.4l17,7.6
		l-23.7,26.9L55.5,71.4z M32.6,51.7L74,28L54.4,68.5C54.4,68.5,32.6,51.7,32.6,51.7z M56.1,69.4L76,28.1L84.9,58L73.8,77.4
		C73.8,77.4,56.1,69.4,56.1,69.4z M86.5,59.1l33.2,1.3L76.4,76.6C76.4,76.6,86.5,59.1,86.5,59.1z M87.9,53.2l5.4-25.7l10.8,2.1
		C104.1,29.6,87.9,53.2,87.9,53.2z M103.7,27.3l-10.2-1.9L88.7,6.2L103.7,27.3z M85.7,2.2l4.9,20.5L72.4,3.2
		C72.4,3.2,85.7,2.2,85.7,2.2z M91.4,26.7L85.7,54l-8.6-28.9L72,6C72,6,91.4,26.7,91.4,26.7z M69.3,3.3l5.4,20.3L35.1,10.2
		C35.1,10.2,69.3,3.3,69.3,3.3z M32.3,11.3l41.5,14.1l-42,24.3C31.8,49.7,32.3,11.3,32.3,11.3z M30.1,15.4L29.8,51L4.4,79.6
		C4.4,79.6,30.1,15.4,30.1,15.4z M30.9,52.9l21.6,16.7L4.2,82.9C4.2,82.9,30.9,52.9,30.9,52.9z M33.7,87.4l10.8,19.5l-39-21
		C5.5,85.9,33.7,87.4,33.7,87.4z M12.2,92l34,18.3l9.9,14.8C56.1,125.1,12.2,92,12.2,92z M49.6,111.2l9.4,3l0.3,11.6
		C59.3,125.8,49.6,111.2,49.6,111.2z M78.4,114.6l-17,12.9l-0.5-13.3l19.6-11.9L78.4,114.6z M59.8,112.4L49,108.9l25-28.3l6.8,19.1
		C80.8,99.7,59.8,112.4,59.8,112.4z M82.5,99l-6.7-18.8l36.6,11.1C112.4,91.3,82.5,99,82.5,99z M115.5,90.3l-38-11.6l45.8-17.3
		C123.3,61.4,115.5,90.3,115.5,90.3z M124.2,58.6l-31.6-1.3l36.6-10L124.2,58.6z M109.7,30.2l18.8,1.6l1.3,11.9L109.7,30.2z"/>
</g>
</svg>
