<?xml version="1.0" encoding="UTF-8"?>
<svg data-bbox="-0.025 0 305.135 183.6" viewBox="0 0 305.11 183.6" xmlns="http://www.w3.org/2000/svg" data-type="ugc">
    <g>
        <g>
            <path fill="none" d="M305.11 0v183.6H0V0h305.11z"/>
            <path d="m178.52 73.48-.23.14v-.14Z"/>
            <path d="M180.6 135.54a31.79 31.79 0 0 1-9.36-22.54V73.62h-14.51v5.64a47.15 47.15 0 0 0-7.16-5.56 46.43 46.43 0 1 0 0 78.56 47.86 47.86 0 0 0 7.16-5.57 46.47 46.47 0 0 0 7.27-8.79 46.18 46.18 0 0 0 6.35 7.91c.3.29.59.59.9.88l.64.6L182.17 137c-.54-.46-1.06-.95-1.57-1.46Zm-41.68 6.06a31.92 31.92 0 1 1 17.81-28.6 31.64 31.64 0 0 1-17.81 28.6Z" fill="#999999"/>
            <path d="M70.74 133.68a31.92 31.92 0 1 1 0-41.43L78 78.91A46.44 46.44 0 1 0 78 147Z" fill="#ffffff"/>
        </g>
    </g>
</svg>
