<!-- Generator: Adobe Illustrator 24.1.1, SVG Export Plug-In  -->
<svg version="1.1" xmlns="http://www.w3.org/2000/svg" xmlns:xlink="http://www.w3.org/1999/xlink" x="0px" y="0px" width="200px"
	 height="70px" viewBox="0 0 200 70" style="enable-background:new 0 0 200 70;" xml:space="preserve">
<style type="text/css">
	.st0{fill:#E9E2CF;}
	.st1{opacity:0.1;enable-background:new    ;}
	.st2{fill:#90A196;}
	.st3{opacity:0.2;enable-background:new    ;}
	.st4{opacity:0.3;enable-background:new    ;}
</style>
<defs>
</defs>
<g>
	<path class="st0" d="M101.7,0.3h-3.5c-12.4,0-22.4,10.1-22.4,22.5V23h48.3v-0.2C124.1,10.4,114.1,0.3,101.7,0.3z"/>
	<path class="st1" d="M101.7,0.3c0,0,1.8,1.3,2.7,6.3c1.2,6.3,0.9,16.4,0.9,16.4h18.8v-0.2C124.1,10.4,114.1,0.3,101.7,0.3z"/>
	<path class="st2" d="M101.7,0h-0.2h-0.4h-0.6h-1.2h-0.6h-0.4h-0.2C85.7,0,75.5,10.2,75.5,22.8v0.6h2.4h5.9h7.8h16.9h7.8h5.9h2.4
		v-0.6C124.5,10.2,114.3,0,101.7,0z M76.2,22.7c0-8.3,4.7-15.6,11.5-19.3c-5.9,4-9.8,11.2-9.8,19.3C77.8,22.7,76.2,22.7,76.2,22.7z
		 M78.5,22.7c0-10.4,6.6-19.2,15.4-21.5c-5.9,3.1-10.2,11.5-10.2,21.5C82.4,22.7,79,22.7,78.5,22.7z M84.4,22.7
		c0-11.4,5.7-20.7,12.9-21.9c-3.4,2.6-5.8,11.3-5.8,21.9C88.4,22.7,86.4,22.7,84.4,22.7z M92.2,22.7c0-11.9,3.3-22,7.2-22h1.2
		c3.9,0,7.2,10.1,7.2,22C100.8,22.7,99.2,22.7,92.2,22.7z M108.5,22.7c0-10.6-2.4-19.3-5.8-21.9c7.2,1.2,12.9,10.5,12.9,21.9
		C113.6,22.7,111.6,22.7,108.5,22.7z M116.2,22.7c0-9.9-4.3-18.4-10.2-21.5c8.8,2.3,15.4,11,15.4,21.5
		C121,22.7,117.6,22.7,116.2,22.7z M122.1,22.7c0-8.2-4-15.3-9.8-19.3c6.8,3.7,11.5,11,11.5,19.3C123.8,22.7,122.2,22.7,122.1,22.7z
		"/>
	<path class="st2" d="M100.3,0.3V18h-0.7V0.3H100.3z"/>
	<path class="st2" d="M199.2,28.5V70H0.8V28.5H199.2L199.2,28.5z"/>
	<path class="st2" d="M26,30.5v30.9H0.8V30.5H26z"/>
	<path class="st2" d="M199.4,30.5v30.9H174V30.5H199.4z"/>
	<path class="st2" d="M123.6,65.6V70H76.4v-4.4C76.4,65.6,123.6,65.6,123.6,65.6z"/>
	<path class="st2" d="M175.8,32v28.8H27.9V32H175.8z"/>
	<path class="st3" d="M122.4,33.5v27.2H77.6V33.5C77.6,33.5,122.4,33.5,122.4,33.5z"/>
	<path class="st0" d="M175,26.4v2.1H25v-2.1H175z"/>
	<path class="st4" d="M175,26.4v2.1H25v-2.1H175z"/>
	<path class="st2" d="M25.4,12.1v18.3H2.1V12.1H25.4z"/>
	<path class="st0" d="M12.8,63.1h-0.4c-1.3,0-2.4,0.6-2.4,1.4v3.7h5.3v-3.7C15.2,63.7,14.1,63.1,12.8,63.1z"/>
	<path class="st0" d="M188,63.1h-0.4c-1.3,0-2.4,0.6-2.4,1.4v3.7h5.3v-3.7C190.4,63.7,189.3,63.1,188,63.1L188,63.1z"/>
	<path class="st0" d="M31.3,63.1H31c-0.8,0-1.5,0.5-1.5,1.2v3.1h3.2v-3.1C32.8,63.6,32.1,63.1,31.3,63.1z"/>
	<path class="st0" d="M40.3,63.1H40c-0.8,0-1.5,0.5-1.5,1.2v3.1h3.2v-3.1C41.7,63.6,41.1,63.1,40.3,63.1z"/>
	<path class="st0" d="M49.2,63.1H49c-0.8,0-1.5,0.5-1.5,1.2v3.1h3.2v-3.1C50.7,63.6,50,63.1,49.2,63.1z"/>
	<path class="st0" d="M58,63.1h-0.3c-0.8,0-1.5,0.5-1.5,1.2v3.1h3.2v-3.1C59.5,63.6,58.8,63.1,58,63.1z"/>
	<path class="st0" d="M66.6,63.1h-0.3c-0.8,0-1.5,0.5-1.5,1.2v3.1h3.2v-3.1C68.1,63.6,67.4,63.1,66.6,63.1z"/>
	<path class="st0" d="M150.8,63.1h-0.3c-0.8,0-1.5,0.5-1.5,1.2v3.1h3.2v-3.1C152.2,63.6,151.6,63.1,150.8,63.1z"/>
	<path class="st0" d="M159.7,63.1h-0.3c-0.8,0-1.5,0.5-1.5,1.2v3.1h3.2v-3.1C161.2,63.6,160.5,63.1,159.7,63.1z"/>
	<path class="st0" d="M132.9,63.1h-0.3c-0.8,0-1.5,0.5-1.5,1.2v3.1h3.2v-3.1C134.4,63.6,133.7,63.1,132.9,63.1z"/>
	<path class="st0" d="M141.9,63.1h-0.3c-0.8,0-1.5,0.5-1.5,1.2v3.1h3.2v-3.1C143.3,63.6,142.7,63.1,141.9,63.1z"/>
	<path class="st0" d="M168.7,63.1h-0.3c-0.8,0-1.5,0.5-1.5,1.2v3.1h3.2v-3.1C170.1,63.6,169.5,63.1,168.7,63.1z"/>
	<path class="st2" d="M26.5,11.1v1H1v-1H26.5z"/>
	<path class="st2" d="M26,23.5v1H1.5v-1H26z"/>
	<path class="st2" d="M25,9v2.2H2.5V9H25z"/>
	<path class="st2" d="M197.9,12.1v18.3h-23.2V12.1H197.9z"/>
	<path class="st2" d="M199,11.1v1h-25.4v-1H199z"/>
	<path class="st2" d="M198.5,23.5v1H174v-1H198.5z"/>
	<path class="st2" d="M197.5,9v2.2H175V9H197.5z"/>
	<path class="st2" d="M128.6,22.7v7.8H71.4v-7.8H128.6z"/>
	<path class="st2" d="M106.7,18.1v4.6H93.3v-4.6C93.3,18.1,106.7,18.1,106.7,18.1z"/>
	<path class="st2" d="M107.3,17.7v0.9H92.7v-0.9H107.3z"/>
	<path class="st2" d="M78.6,21.8v8.6h-8v-8.6H78.6z"/>
	<path class="st2" d="M79.1,20.6v1.2h-8.9v-1.2H79.1z"/>
	<path class="st2" d="M78.1,17.7v0.9h-7.1v-0.9H78.1z"/>
	<path class="st2" d="M76.7,10.5v0.9h-4.2v-0.9H76.7z"/>
	<path class="st2" d="M77,15.5v2.2h-4.8v-2.2H77z"/>
	<path class="st0" d="M31.5,48.7h-0.4c-1.1,0-2,0.9-2,2v9h4.3v-9C33.5,49.6,32.6,48.7,31.5,48.7z"/>
	<path class="st2" d="M76,11.3v4.2h-2.8v-4.2H76z"/>
	<path class="st2" d="M77.6,18.5v2h-6.1v-2H77.6z"/>
	<path class="st2" d="M75.9,8.9v1.5h-2.5V8.9H75.9z"/>
	<path class="st2" d="M129.4,21.8v8.6h-8v-8.6H129.4z"/>
	<path class="st2" d="M129.8,20.6v1.2h-8.9v-1.2H129.8z"/>
	<path class="st4" d="M128.6,22.7v7.8H71.4v-7.8H128.6z"/>
	<path class="st2" d="M128.9,17.7v0.9h-7.1v-0.9H128.9z"/>
	<path class="st2" d="M127.5,10.5v0.9h-4.2v-0.9H127.5z"/>
	<path class="st2" d="M127.8,15.5v2.2H123v-2.2H127.8z"/>
	<path class="st2" d="M126.8,11.3v4.2H124v-4.2H126.8z"/>
	<path class="st2" d="M128.4,18.5v2h-6.1v-2H128.4z"/>
	<path class="st2" d="M126.6,8.9v1.5h-2.5V8.9C124.1,8.9,126.6,8.9,126.6,8.9z"/>
	<path class="st2" d="M36.4,28.5v2.6h-2.5v-2.6H36.4z"/>
	<path class="st3" d="M26,30.5v30.9H0.8V30.5H26z"/>
	<path class="st3" d="M199.4,30.5v30.9H174V30.5H199.4z"/>
	<path class="st3" d="M123.6,65.6V70H76.4v-4.4C76.4,65.6,123.6,65.6,123.6,65.6z"/>
	<path class="st3" d="M175.8,32v28.8H27.9V32H175.8z"/>
	<path class="st2" d="M45.4,28.5v2.6h-2.5v-2.6H45.4z"/>
	<path class="st3" d="M36.4,28.5v2.6h-2.5v-2.6H36.4z"/>
	<path class="st2" d="M54.4,28.5v2.6h-2.5v-2.6H54.4z"/>
	<path class="st3" d="M35.7,25v2.6h-1.1V25H35.7z"/>
	<path class="st3" d="M45.4,28.5v2.6h-2.5v-2.6H45.4z"/>
	<path class="st2" d="M63.4,28.5v2.6h-2.5v-2.6H63.4z"/>
	<path class="st3" d="M44.7,25v2.6h-1.1V25H44.7z"/>
	<path class="st3" d="M54.4,28.5v2.6h-2.5v-2.6H54.4z"/>
	<path class="st2" d="M139.8,28.5v2.6h-2.5v-2.6H139.8z"/>
	<path class="st3" d="M53.7,25v2.6h-1.1V25H53.7z"/>
	<path class="st3" d="M63.4,28.5v2.6h-2.5v-2.6H63.4z"/>
	<path class="st2" d="M148.8,28.5v2.6h-2.5v-2.6H148.8z"/>
	<path class="st3" d="M62.7,25v2.6h-1.1V25H62.7z"/>
	<path class="st3" d="M139.8,28.5v2.6h-2.5v-2.6H139.8z"/>
	<path class="st2" d="M157.7,28.5v2.6h-2.5v-2.6H157.7z"/>
	<path class="st3" d="M139,25v2.6H138V25H139z"/>
	<path class="st2" d="M74.4,30.5v1.3H0v-1.3H74.4z"/>
	<path class="st2" d="M166.7,28.5v2.6h-2.5v-2.6H166.7z"/>
	<path class="st3" d="M148.8,28.5v2.6h-2.5v-2.6H148.8z"/>
	<path class="st3" d="M148,25v2.6H147V25H148z"/>
	<path class="st3" d="M157.7,28.5v2.6h-2.5v-2.6H157.7z"/>
	<path class="st3" d="M157,25v2.6h-1.1V25H157z"/>
	<path class="st3" d="M166.7,28.5v2.6h-2.5v-2.6H166.7z"/>
	<path class="st2" d="M200,30.5v1.3h-74.4v-1.3H200z"/>
	<path class="st3" d="M166,25v2.6h-1.1V25H166z"/>
	<path class="st3" d="M74.4,30.5v1.3H0v-1.3H74.4z"/>
	<path class="st3" d="M75.5,60.6V62H0v-1.3C0,60.6,75.5,60.6,75.5,60.6z"/>
	<path class="st3" d="M200,60.6V62h-75.5v-1.3H200z"/>
	<path class="st3" d="M200,30.5v1.3h-74.4v-1.3H200z"/>
	<path class="st3" d="M17.4,48.6V50H8.7v-1.4H17.4z"/>
	<path class="st3" d="M124.1,31.8v3.5H75.9v-3.5C75.9,31.8,124.1,31.8,124.1,31.8z"/>
	<path class="st3" d="M191.2,48.6V50h-8.7v-1.4H191.2z"/>
	<path class="st2" d="M35.7,25v2.6h-1.1V25H35.7z"/>
	<path class="st2" d="M34.4,27.6L34,28.5h2.2L36,27.6C36,27.6,34.4,27.6,34.4,27.6z"/>
	<path class="st2" d="M44.7,25v2.6h-1.1V25H44.7z"/>
	<path class="st2" d="M43.3,27.6L43,28.5h2.2l-0.3-0.9C44.9,27.6,43.3,27.6,43.3,27.6z"/>
	<path class="st2" d="M53.7,25v2.6h-1.1V25H53.7z"/>
	<path class="st2" d="M52.3,27.6L52,28.5h2.2l-0.3-0.9C53.9,27.6,52.3,27.6,52.3,27.6z"/>
	<path class="st2" d="M62.7,25v2.6h-1.1V25H62.7z"/>
	<path class="st2" d="M61.3,27.6L61,28.5h2.2l-0.3-0.9C62.9,27.6,61.3,27.6,61.3,27.6z"/>
	<path class="st2" d="M139,25v2.6H138V25H139z"/>
	<path class="st2" d="M137.7,27.6l-0.3,0.9h2.2l-0.3-0.9H137.7z"/>
	<path class="st2" d="M148,25v2.6H147V25H148z"/>
	<path class="st2" d="M146.7,27.6l-0.3,0.9h2.2l-0.3-0.9H146.7z"/>
	<path class="st2" d="M157,25v2.6h-1.1V25H157z"/>
	<path class="st2" d="M155.7,27.6l-0.3,0.9h2.2l-0.3-0.9H155.7z"/>
	<path class="st2" d="M166,25v2.6h-1.1V25H166z"/>
	<path class="st2" d="M164.7,27.6l-0.3,0.9h2.2l-0.3-0.9H164.7z"/>
	<path class="st2" d="M75.5,60.6V62H0v-1.3C0,60.6,75.5,60.6,75.5,60.6z"/>
	<path class="st2" d="M200,60.6V62h-75.5v-1.3H200z"/>
	<path class="st3" d="M78.9,60.7L76,65.6h47.5l-2.9-4.9H78.9z"/>
	<path class="st2" d="M6.8,31.9v4H3.3v-4H6.8z"/>
	<path class="st2" d="M6.8,58.6v2H3.3v-2H6.8z"/>
	<path class="st2" d="M6.3,35.9v22.7H3.8V35.9C3.8,35.9,6.3,35.9,6.3,35.9z"/>
	<path class="st2" d="M10.9,50v1.3H9V50H10.9z"/>
	<path class="st2" d="M17.4,48.6V50H8.7v-1.4H17.4z"/>
	<path class="st2" d="M10.9,58.9v0.7H9v-0.7H10.9z"/>
	<path class="st2" d="M10.6,51.4v7.6H9.3v-7.6H10.6z"/>
	<path class="st2" d="M17.1,50v1.3h-1.9V50H17.1z"/>
	<path class="st2" d="M17.1,58.9v0.7h-1.9v-0.7H17.1z"/>
	<path class="st2" d="M16.8,51.4v7.6h-1.4v-7.6H16.8z"/>
	<path class="st2" d="M16.8,51.4v7.6h-0.5v-7.6H16.8z"/>
	<path class="st2" d="M10.6,51.4v7.6h-0.5v-7.6H10.6z"/>
	<path class="st2" d="M23.2,31.9v4h-3.5v-4H23.2z"/>
	<path class="st2" d="M23.2,58.6v2h-3.5v-2H23.2z"/>
	<path class="st2" d="M22.7,35.9v22.7h-2.5V35.9C20.2,35.9,22.7,35.9,22.7,35.9z"/>
	<path class="st2" d="M37.4,36.2v3.4h-3.5v-3.4H37.4z"/>
	<path class="st0" d="M32.8,39.4V45h-3.2v-5.6C29.6,39.4,32.8,39.4,32.8,39.4z"/>
	<path class="st2" d="M75.9,31.7v4.5H26v-4.5H75.9z"/>
	<path class="st2" d="M37.4,58.9v1.7h-3.5v-1.7H37.4z"/>
	<path class="st2" d="M36.9,39.6v19.3h-2.5V39.6H36.9z"/>
	<path class="st2" d="M125.6,30.5v1.3H74.4v-1.3C74.4,30.5,125.6,30.5,125.6,30.5z"/>
	<path class="st2" d="M124.1,31.8v3.5H75.9v-3.5C75.9,31.8,124.1,31.8,124.1,31.8z"/>
	<path class="st2" d="M73.4,30.5h53.2L99.9,19.6C99.9,19.6,73.4,30.5,73.4,30.5z"/>
	<path class="st3" d="M73.4,30.5h53.2L99.9,19.6C99.9,19.6,73.4,30.5,73.4,30.5z"/>
	<path class="st2" d="M76.8,30.5h46.5l-23.2-9.4L76.8,30.5z"/>
	<path class="st2" d="M8,48.6h10.1L13,45.2C13,45.2,8,48.6,8,48.6z"/>
	<path class="st2" d="M9,48.6h8.1L13.1,46L9,48.6z"/>
	<path class="st2" d="M28.8,38.6h4.8l-2.4-2L28.8,38.6z"/>
	<path class="st2" d="M29.6,38.6h3.2l-1.6-1.3L29.6,38.6z"/>
	<path class="st0" d="M40.7,48.7h-0.4c-1.1,0-2,0.9-2,2v9h4.3v-9C42.6,49.6,41.8,48.7,40.7,48.7z"/>
	<path class="st2" d="M46.6,36.2v3.4h-3.5v-3.4H46.6z"/>
	<path class="st0" d="M41.9,39.4V45h-3.2v-5.6C38.7,39.4,41.9,39.4,41.9,39.4z"/>
	<path class="st2" d="M46.6,58.9v1.7h-3.5v-1.7H46.6z"/>
	<path class="st2" d="M46.1,39.6v19.3h-2.5V39.6H46.1z"/>
	<path class="st2" d="M38,38.6h4.8l-2.4-2L38,38.6z"/>
	<path class="st2" d="M38.7,38.6h3.2l-1.6-1.3L38.7,38.6z"/>
	<path class="st0" d="M49.8,48.7h-0.4c-1.1,0-2,0.9-2,2v9h4.3v-9C51.8,49.6,50.9,48.7,49.8,48.7z"/>
	<path class="st2" d="M55.7,36.2v3.4h-3.5v-3.4H55.7z"/>
	<path class="st0" d="M51.1,39.4V45h-3.2v-5.6C47.9,39.4,51.1,39.4,51.1,39.4z"/>
	<path class="st2" d="M55.7,58.9v1.7h-3.5v-1.7H55.7z"/>
	<path class="st2" d="M55.2,39.6v19.3h-2.5V39.6H55.2z"/>
	<path class="st2" d="M47.1,38.6h4.8l-2.4-2L47.1,38.6z"/>
	<path class="st2" d="M47.9,38.6h3.2l-1.6-1.3C49.5,37.3,47.9,38.6,47.9,38.6z"/>
	<path class="st0" d="M59,48.7h-0.4c-1.1,0-2,0.9-2,2v9h4.3v-9C60.9,49.6,60,48.7,59,48.7z"/>
	<path class="st2" d="M64.9,36.2v3.4h-3.5v-3.4H64.9z"/>
	<path class="st0" d="M60.2,39.4V45H57v-5.6C57,39.4,60.2,39.4,60.2,39.4z"/>
	<path class="st2" d="M64.9,58.9v1.7h-3.5v-1.7H64.9z"/>
	<path class="st2" d="M64.4,39.6v19.3h-2.5V39.6H64.4z"/>
	<path class="st2" d="M56.2,38.6H61l-2.4-2L56.2,38.6z"/>
	<path class="st2" d="M57,38.6h3.2l-1.6-1.3L57,38.6z"/>
	<path class="st0" d="M68.1,48.7h-0.4c-1.1,0-2,0.9-2,2v9h4.3v-9C70.1,49.6,69.2,48.7,68.1,48.7z"/>
	<path class="st2" d="M74,36.2v3.4h-3.5v-3.4H74z"/>
	<path class="st0" d="M69.4,39.4V45h-3.2v-5.6C66.2,39.4,69.4,39.4,69.4,39.4z"/>
	<path class="st2" d="M74,58.9v1.7h-3.5v-1.7H74z"/>
	<path class="st2" d="M73.5,39.6v19.3H71V39.6C71,39.6,73.5,39.6,73.5,39.6z"/>
	<path class="st2" d="M79.4,35.3v3.5h-3.5v-3.5H79.4z"/>
	<path class="st2" d="M79.8,58.2v2.4h-4.3v-2.4C75.5,58.2,79.8,58.2,79.8,58.2z"/>
	<path class="st2" d="M78.9,38.8v19.4h-2.5V38.8C76.4,38.8,78.9,38.8,78.9,38.8z"/>
	<path class="st2" d="M79,38.8v19.4h-0.7V38.8H79z"/>
	<path class="st2" d="M88.3,35.3v3.5h-3.5v-3.5H88.3z"/>
	<path class="st2" d="M88.8,58.2v2.5h-4.3v-2.5H88.8z"/>
	<path class="st2" d="M87.8,38.8v19.4h-2.5V38.8H87.8z"/>
	<path class="st2" d="M97.3,35.3v3.5h-3.5v-3.5H97.3z"/>
	<path class="st2" d="M97.7,58.2v2.5h-4.3v-2.5H97.7z"/>
	<path class="st2" d="M96.8,38.8v19.4h-2.5V38.8H96.8z"/>
	<path class="st2" d="M106.2,35.3v3.5h-3.5v-3.5H106.2z"/>
	<path class="st2" d="M106.6,58.2v2.5h-4.3v-2.5H106.6z"/>
	<path class="st2" d="M105.7,38.8v19.4h-2.5V38.8H105.7z"/>
	<path class="st2" d="M115.2,35.3v3.5h-3.5v-3.5H115.2z"/>
	<path class="st2" d="M115.6,58.2v2.5h-4.3v-2.5H115.6z"/>
	<path class="st2" d="M114.6,38.8v19.4h-2.5V38.8H114.6z"/>
	<path class="st2" d="M124.1,35.3v3.5h-3.5v-3.5H124.1z"/>
	<path class="st2" d="M124.5,58.2v2.4h-4.3v-2.4H124.5z"/>
	<path class="st2" d="M79.8,60.6v3.8h-4.3v-3.8C75.5,60.6,79.8,60.6,79.8,60.6z"/>
	<path class="st2" d="M76.4,64.4V70h-3.2v-5.6H76.4z"/>
	<path class="st2" d="M4.4,70h68.8v-5.6L4.4,69.1C4.4,69.1,4.4,70,4.4,70z"/>
	<path class="st2" d="M126.1,70h68.8v-0.9l-68.8-4.7V70z"/>
	<path class="st2" d="M126.1,64.4V70h-3.2v-5.6H126.1z"/>
	<path class="st2" d="M124.5,60.6v3.8h-4.3v-3.8H124.5z"/>
	<path class="st2" d="M123.5,38.8v19.4h-2.4V38.8H123.5z"/>
	<path class="st2" d="M65.4,38.6h4.8l-2.4-2L65.4,38.6z"/>
	<path class="st2" d="M66.2,38.6h3.2l-1.6-1.3L66.2,38.6z"/>
	<path class="st0" d="M168.8,48.7h-0.4c-1.1,0-2,0.9-2,2v9h4.3v-9C170.7,49.6,169.9,48.7,168.8,48.7z"/>
	<path class="st2" d="M196.6,31.9v4h-3.5v-4H196.6z"/>
	<path class="st2" d="M196.6,58.6v2h-3.5v-2H196.6z"/>
	<path class="st2" d="M196.1,35.9v22.7h-2.5V35.9C193.6,35.9,196.1,35.9,196.1,35.9z"/>
	<path class="st2" d="M190.9,50v1.3H189V50H190.9z"/>
	<path class="st2" d="M191.2,48.6V50h-8.7v-1.4H191.2z"/>
	<path class="st2" d="M190.9,58.9v0.7H189v-0.7H190.9z"/>
	<path class="st2" d="M190.7,51.4v7.6h-1.4v-7.6H190.7z"/>
	<path class="st2" d="M190.7,51.4v7.6h-0.5v-7.6H190.7z"/>
	<path class="st2" d="M184.7,50v1.3h-1.9V50H184.7z"/>
	<path class="st2" d="M184.7,58.9v0.7h-1.9v-0.7H184.7z"/>
	<path class="st2" d="M184.4,51.4v7.6h-1.4v-7.6H184.4z"/>
	<path class="st2" d="M184.4,51.4v7.6h-0.5v-7.6H184.4z"/>
	<path class="st2" d="M180.2,31.9v4h-3.5v-4H180.2z"/>
	<path class="st2" d="M180.2,58.6v2h-3.5v-2H180.2z"/>
	<path class="st2" d="M179.7,35.9v22.7h-2.5V35.9C177.2,35.9,179.7,35.9,179.7,35.9z"/>
	<path class="st2" d="M179.7,35.9v22.7h-0.8V35.9C178.9,35.9,179.7,35.9,179.7,35.9z"/>
	<path class="st2" d="M196.1,35.9v22.7h-0.8V35.9C195.4,35.9,196.1,35.9,196.1,35.9z"/>
	<path class="st2" d="M166,36.2v3.4h-3.5v-3.4H166z"/>
	<path class="st0" d="M170.3,39.4V45h-3.2v-5.6C167.1,39.4,170.3,39.4,170.3,39.4z"/>
	<path class="st2" d="M174,31.7v4.5h-49.9v-4.5H174z"/>
	<path class="st2" d="M166,58.9v1.7h-3.5v-1.7H166z"/>
	<path class="st2" d="M165.5,39.6v19.3H163V39.6H165.5z"/>
	<path class="st2" d="M181.8,48.6h10.1l-5-3.4L181.8,48.6z"/>
	<path class="st2" d="M182.8,48.6h8.2l-4.1-2.6L182.8,48.6z"/>
	<path class="st2" d="M166.4,38.6h4.8l-2.4-2L166.4,38.6z"/>
	<path class="st2" d="M167.1,38.6h3.2l-1.6-1.3L167.1,38.6z"/>
	<path class="st0" d="M159.6,48.7h-0.4c-1.1,0-2,0.9-2,2v9h4.3v-9C161.6,49.6,160.7,48.7,159.6,48.7z"/>
	<path class="st2" d="M156.8,36.2v3.4h-3.5v-3.4H156.8z"/>
	<path class="st0" d="M161.2,39.4V45H158v-5.6C158,39.4,161.2,39.4,161.2,39.4z"/>
	<path class="st2" d="M156.8,58.9v1.7h-3.5v-1.7H156.8z"/>
	<path class="st2" d="M156.3,39.6v19.3h-2.5V39.6H156.3z"/>
	<path class="st2" d="M157.2,38.6h4.8l-2.4-2L157.2,38.6L157.2,38.6z"/>
	<path class="st2" d="M158,38.6h3.2l-1.6-1.3L158,38.6z"/>
	<path class="st0" d="M150.5,48.7h-0.4c-1.1,0-2,0.9-2,2v9h4.3v-9C152.4,49.6,151.6,48.7,150.5,48.7z"/>
	<path class="st2" d="M147.7,36.2v3.4h-3.5v-3.4H147.7z"/>
	<path class="st0" d="M152,39.4V45h-3.2v-5.6C148.8,39.4,152,39.4,152,39.4z"/>
	<path class="st2" d="M147.7,58.9v1.7h-3.5v-1.7H147.7z"/>
	<path class="st2" d="M147.2,39.6v19.3h-2.5V39.6H147.2z"/>
	<path class="st2" d="M148.1,38.6h4.8l-2.4-2L148.1,38.6z"/>
	<path class="st2" d="M148.8,38.6h3.2l-1.6-1.3L148.8,38.6z"/>
	<path class="st0" d="M141.3,48.7H141c-1.1,0-2,0.9-2,2v9h4.3v-9C143.3,49.6,142.4,48.7,141.3,48.7z"/>
	<path class="st2" d="M138.5,36.2v3.4H135v-3.4H138.5z"/>
	<path class="st0" d="M142.9,39.4V45h-3.2v-5.6C139.7,39.4,142.9,39.4,142.9,39.4z"/>
	<path class="st2" d="M138.5,58.9v1.7H135v-1.7H138.5z"/>
	<path class="st2" d="M138,39.6v19.3h-2.5V39.6H138z"/>
	<path class="st2" d="M138.9,38.6h4.8l-2.4-2L138.9,38.6z"/>
	<path class="st2" d="M139.7,38.6h3.2l-1.6-1.3L139.7,38.6L139.7,38.6z"/>
	<path class="st0" d="M132.2,48.7h-0.4c-1.1,0-2,0.9-2,2v9h4.3v-9C134.1,49.6,133.3,48.7,132.2,48.7z"/>
	<path class="st2" d="M129.4,36.2v3.4h-3.5v-3.4H129.4z"/>
	<path class="st0" d="M133.7,39.4V45h-3.2v-5.6C130.6,39.4,133.7,39.4,133.7,39.4z"/>
	<path class="st2" d="M129.4,58.9v1.7h-3.5v-1.7H129.4z"/>
	<path class="st2" d="M128.9,39.6v19.3h-2.5V39.6H128.9z"/>
	<path class="st2" d="M129.8,38.6h4.8l-2.4-2L129.8,38.6z"/>
	<path class="st2" d="M130.5,38.6h3.2l-1.6-1.3C132.1,37.3,130.5,38.6,130.5,38.6z"/>
	<path class="st2" d="M87.8,38.8v19.4h-0.7V38.8H87.8z"/>
	<path class="st2" d="M96.9,38.8v19.4h-0.7V38.8H96.9z"/>
	<path class="st2" d="M105.7,38.8v19.4H105V38.8H105.7z"/>
	<path class="st2" d="M114.7,38.8v19.4H114V38.8H114.7z"/>
	<path class="st2" d="M128.9,39.6v19.3h-0.7V39.6H128.9z"/>
	<path class="st2" d="M138,39.6v19.3h-0.7V39.6H138z"/>
	<path class="st2" d="M147.2,39.6v19.3h-0.7V39.6H147.2z"/>
	<path class="st2" d="M156.3,39.6v19.3h-0.7V39.6H156.3z"/>
	<path class="st2" d="M165.5,39.6v19.3h-0.7V39.6H165.5z"/>
	<path class="st2" d="M36.9,39.6v19.3h-0.7V39.6H36.9z"/>
	<path class="st2" d="M22.7,35.9v22.7h-0.9V35.9C21.8,35.9,22.7,35.9,22.7,35.9z"/>
	<path class="st2" d="M6.3,35.9v22.7H5.3V35.9C5.3,35.9,6.3,35.9,6.3,35.9z"/>
	<path class="st2" d="M46.1,39.6v19.3h-0.7V39.6H46.1z"/>
	<path class="st2" d="M55.2,39.6v19.3h-0.7V39.6H55.2z"/>
	<path class="st2" d="M64.4,39.6v19.3h-0.7V39.6H64.4z"/>
	<path class="st2" d="M73.5,39.6v19.3h-0.7V39.6H73.5z"/>
	<path class="st2" d="M123.5,38.8v19.4h-0.7V38.8H123.5z"/>
	<path class="st3" d="M4.4,70h68.8v-5.6L4.4,69.1C4.4,69.1,4.4,70,4.4,70z"/>
	<path class="st3" d="M126.1,70h68.8v-0.9l-68.8-4.7V70z"/>
	<path class="st3" d="M26.5,11.1v1H1v-1H26.5z"/>
	<path class="st3" d="M26,23.5v1H1.5v-1H26z"/>
	<path class="st3" d="M199,11.1v1h-25.4v-1H199z"/>
	<path class="st3" d="M198.5,23.5v1H174v-1H198.5z"/>
	<g>
		<rect x="70.2" y="20.6" class="st3" width="8.9" height="1.2"/>
		<polygon class="st3" points="78.1,17.7 77,17.7 77,15.5 76,15.5 76,11.3 76.7,11.3 76.7,10.5 75.9,10.5 75.9,8.9 73.4,8.9 
			73.4,10.5 72.5,10.5 72.5,11.3 73.2,11.3 73.2,15.5 72.2,15.5 72.2,17.7 71.1,17.7 71.1,18.5 78.1,18.5 		"/>
		<rect x="120.9" y="20.6" class="st3" width="8.9" height="1.2"/>
		<polygon class="st3" points="128.9,17.7 127.8,17.7 127.8,15.5 126.8,15.5 126.8,11.3 127.5,11.3 127.5,10.5 126.6,10.5 
			126.6,8.9 124.1,8.9 124.1,10.5 123.3,10.5 123.3,11.3 124,11.3 124,15.5 123,15.5 123,17.7 121.9,17.7 121.9,18.5 128.9,18.5 		
			"/>
	</g>
	<path class="st3" d="M16.8,51.4v7.6h-0.5v-7.6H16.8z"/>
	<path class="st3" d="M10.6,51.4v7.6h-0.5v-7.6H10.6z"/>
	<path class="st3" d="M125.6,30.5v1.2H74.4v-1.2C74.4,30.5,125.6,30.5,125.6,30.5z"/>
	<path class="st3" d="M28.8,38.6h4.8l-2.4-2L28.8,38.6z"/>
	<path class="st3" d="M38,38.6h4.8l-2.4-2L38,38.6z"/>
	<path class="st3" d="M47.1,38.6h4.8l-2.4-2L47.1,38.6z"/>
	<path class="st3" d="M56.2,38.6H61l-2.4-2L56.2,38.6z"/>
	<path class="st3" d="M79,38.8v19.4h-0.7V38.8H79z"/>
	<path class="st3" d="M65.4,38.6h4.8l-2.4-2L65.4,38.6z"/>
	<path class="st3" d="M190.7,51.4v7.6h-0.5v-7.6H190.7z"/>
	<path class="st3" d="M184.4,51.4v7.6h-0.5v-7.6H184.4z"/>
	<path class="st3" d="M179.7,35.9v22.7h-0.8V35.9C178.9,35.9,179.7,35.9,179.7,35.9z"/>
	<path class="st3" d="M196.1,35.9v22.7h-0.8V35.9C195.4,35.9,196.1,35.9,196.1,35.9z"/>
	<path class="st3" d="M166.4,38.6h4.8l-2.4-2L166.4,38.6z"/>
	<path class="st3" d="M157.2,38.6h4.8l-2.4-2L157.2,38.6L157.2,38.6z"/>
	<path class="st3" d="M148.1,38.6h4.8l-2.4-2L148.1,38.6z"/>
	<path class="st3" d="M138.9,38.6h4.8l-2.4-2L138.9,38.6z"/>
	<path class="st3" d="M129.8,38.6h4.8l-2.4-2L129.8,38.6z"/>
	<path class="st3" d="M87.8,38.8v19.4h-0.7V38.8H87.8z"/>
	<path class="st3" d="M96.9,38.8v19.4h-0.7V38.8H96.9z"/>
	<path class="st3" d="M105.7,38.8v19.4H105V38.8H105.7z"/>
	<path class="st3" d="M114.7,38.8v19.4H114V38.8H114.7z"/>
	<path class="st3" d="M128.9,39.6v19.3h-0.7V39.6H128.9z"/>
	<path class="st3" d="M138,39.6v19.3h-0.7V39.6H138z"/>
	<path class="st3" d="M147.2,39.6v19.3h-0.7V39.6H147.2z"/>
	<path class="st3" d="M156.3,39.6v19.3h-0.7V39.6H156.3z"/>
	<path class="st3" d="M165.5,39.6v19.3h-0.7V39.6H165.5z"/>
	<path class="st3" d="M36.9,39.6v19.3h-0.7V39.6H36.9z"/>
	<path class="st3" d="M22.7,35.9v22.7h-0.9V35.9C21.8,35.9,22.7,35.9,22.7,35.9z"/>
	<path class="st3" d="M6.3,35.9v22.7H5.3V35.9C5.3,35.9,6.3,35.9,6.3,35.9z"/>
	<path class="st3" d="M46.1,39.6v19.3h-0.7V39.6H46.1z"/>
	<path class="st3" d="M55.2,39.6v19.3h-0.7V39.6H55.2z"/>
	<path class="st3" d="M64.4,39.6v19.3h-0.7V39.6H64.4z"/>
	<path class="st3" d="M73.5,39.6v19.3h-0.7V39.6H73.5z"/>
	<path class="st3" d="M123.5,38.8v19.4h-0.7V38.8H123.5z"/>
</g>
</svg>
