<?xml version="1.0" encoding="UTF-8"?>
<svg data-bbox="-0.014 0 305.124 183.6" viewBox="0 0 305.11 183.6" xmlns="http://www.w3.org/2000/svg" data-type="ugc">
    <g>
        <g>
            <path fill="none" d="M305.11 0v183.6H0V0h305.11z"/>
            <path d="m178.52 75-.23.14V75Z"/>
            <path d="M180.6 137a31.79 31.79 0 0 1-9.36-22.57V75.11h-14.51v5.63a47.15 47.15 0 0 0-7.16-5.56 46.43 46.43 0 1 0 0 78.56 47.86 47.86 0 0 0 7.16-5.57 46.47 46.47 0 0 0 7.26-8.79 46.18 46.18 0 0 0 6.35 7.91c.3.29.59.59.9.88l.64.6 10.29-10.29c-.54-.48-1.06-.95-1.57-1.48Zm-41.68 6.06a31.92 31.92 0 1 1 17.81-28.63 31.64 31.64 0 0 1-17.81 28.65Z" fill="#999999"/>
            <path d="M70.74 135.16a31.92 31.92 0 1 1 0-41.43L78 80.39a46.44 46.44 0 1 0 0 68.11Z" fill="#ffffff"/>
            <path d="M249.2 25v89.42a46.43 46.43 0 0 1-68.7 40.75l10.91-10.91a31.92 31.92 0 1 0 11.35-61.76c-.63 0-1.25 0-1.86.07a34.59 34.59 0 0 0-14.69 4.54 24.12 24.12 0 0 0-4 2.84V73.08a44.34 44.34 0 0 1 6.46-2.76A43.34 43.34 0 0 1 202.76 68a46.26 46.26 0 0 1 32 12.76V10.54Z" fill="#31a5a5"/>
        </g>
    </g>
</svg>
