<?xml version="1.0" encoding="UTF-8"?>
<svg data-bbox="-0.014 0 305.124 183.6" viewBox="0 0 305.11 183.6" xmlns="http://www.w3.org/2000/svg" data-type="ugc">
    <g>
        <g>
            <path fill="none" d="M305.11 0v183.6H0V0h305.11z"/>
            <path d="m178.52 75-.23.14V75Z"/>
            <path d="M180.6 137a31.79 31.79 0 0 1-9.36-22.57V75.11h-14.51v5.63a47.15 47.15 0 0 0-7.16-5.56 46.43 46.43 0 1 0 0 78.56 47.86 47.86 0 0 0 7.16-5.57 46.47 46.47 0 0 0 7.26-8.79 46.18 46.18 0 0 0 6.35 7.91c.3.29.59.59.9.88l.64.6 10.29-10.29c-.54-.48-1.06-.95-1.57-1.48Zm-41.68 6.06a31.92 31.92 0 1 1 17.81-28.63 31.64 31.64 0 0 1-17.81 28.65Z" fill="#999999"/>
            <path d="M70.74 135.16a31.92 31.92 0 1 1 0-41.43L78 80.39a46.44 46.44 0 1 0 0 68.11Z" fill="#ffffff"/>
            <path fill="#ffffff" d="M51.21 183.48h1.75v-4.5h4.25v-1.66h-4.25v-3.08h4.88v-1.68h-6.63v10.92z"/>
            <path d="m76.27 172.11-4.83 11.37h1.71l1.06-2.56h4l1 2.56h2l-4.83-11.37Zm-1.45 7.31 1.43-3.42 1.35 3.46Z" fill="#ffffff"/>
            <path d="M102.26 181.66a4.29 4.29 0 0 1-3 0 3.71 3.71 0 0 1-1.17-.81 3.78 3.78 0 0 1-.75-1.24 4.66 4.66 0 0 1-.26-1.57 4 4 0 0 1 .29-1.53 4.17 4.17 0 0 1 .79-1.24 3.53 3.53 0 0 1 1.16-.83 3.45 3.45 0 0 1 1.38-.29 3.4 3.4 0 0 1 1.42.29 7.09 7.09 0 0 1 1.05.57l.69-1.64a6.51 6.51 0 0 0-1.37-.62 5.62 5.62 0 0 0-1.85-.28 5.47 5.47 0 0 0-2.16.42 5 5 0 0 0-1.73 1.11 5.2 5.2 0 0 0-1.11 1.79 6.42 6.42 0 0 0-.39 2.28 5.58 5.58 0 0 0 .38 2.09 5.23 5.23 0 0 0 1.09 1.74 4.93 4.93 0 0 0 1.72 1.2 5.82 5.82 0 0 0 2.3.46 5 5 0 0 0 1.44-.16 5.47 5.47 0 0 0 1.13-.41 7.22 7.22 0 0 0 .71-.4l-.73-1.56a4.11 4.11 0 0 1-1.03.63Z" fill="#ffffff"/>
            <path fill="#ffffff" d="M119.07 174.24h2.74v9.24h1.74v-9.24h2.82v-1.68h-7.3v1.68z"/>
            <path d="M150.51 174.11a5.79 5.79 0 0 0-1.78-1.23 5.52 5.52 0 0 0-4.32 0 5.67 5.67 0 0 0-1.78 1.23 5.82 5.82 0 0 0-1.2 1.78A5.36 5.36 0 0 0 141 178a5.47 5.47 0 0 0 .43 2.18 5.66 5.66 0 0 0 1.2 1.77 5.6 5.6 0 0 0 1.77 1.18 5.67 5.67 0 0 0 4.33 0 5.51 5.51 0 0 0 1.78-1.19 5.64 5.64 0 0 0 1.22-1.78 5.5 5.5 0 0 0 0-4.31 5.88 5.88 0 0 0-1.22-1.74Zm-.43 5.44a4.13 4.13 0 0 1-.8 1.24 3.74 3.74 0 0 1-1.2.83 3.57 3.57 0 0 1-1.46.3 3.72 3.72 0 0 1-1.5-.3 3.89 3.89 0 0 1-1.21-.83 3.86 3.86 0 0 1-1.11-2.79 4.12 4.12 0 0 1 .28-1.53 4 4 0 0 1 .8-1.25 3.76 3.76 0 0 1 1.21-.84 3.71 3.71 0 0 1 1.49-.3 3.66 3.66 0 0 1 1.48.3 3.62 3.62 0 0 1 1.2.84 4.2 4.2 0 0 1 .81 1.25 3.87 3.87 0 0 1 .3 1.53 4 4 0 0 1-.29 1.55Z" fill="#ffffff"/>
            <path d="M174.27 178.52a3.08 3.08 0 0 0 .64-1.16 4.45 4.45 0 0 0 .2-1.29 3.51 3.51 0 0 0-.3-1.49 3 3 0 0 0-.81-1.1 3.66 3.66 0 0 0-1.28-.69 5.72 5.72 0 0 0-1.65-.23H168v10.92h1.75v-3.79h1.75l2.47 3.81h2l-2.66-4.24a3.13 3.13 0 0 0 .96-.74Zm-4.52-4.28h1.62a2.06 2.06 0 0 1 .95.2 1.78 1.78 0 0 1 .59.48 2 2 0 0 1 .31.62 2.17 2.17 0 0 1 .09.59 2.35 2.35 0 0 1-.1.61 2 2 0 0 1-.32.61 1.61 1.61 0 0 1-.6.47 2.34 2.34 0 0 1-1 .19h-1.56Z" fill="#ffffff"/>
            <path fill="#ffffff" d="m197.41 172.56-2.76 5.39-2.82-5.39h-2.14l4.03 7.38v3.54h1.74v-3.54l4.1-7.38h-2.15z"/>
            <path d="M249.2 25v89.42a46.43 46.43 0 0 1-68.7 40.75l10.91-10.91a31.92 31.92 0 1 0 11.35-61.76c-.63 0-1.25 0-1.86.07a34.59 34.59 0 0 0-14.69 4.54 24.12 24.12 0 0 0-4 2.84V73.08a44.34 44.34 0 0 1 6.46-2.76A43.34 43.34 0 0 1 202.76 68a46.26 46.26 0 0 1 32 12.76V10.54Z" fill="#31a5a5"/>
        </g>
    </g>
</svg>
