<?xml version="1.0" encoding="UTF-8"?>
<svg data-bbox="0 0.04 4608 356.75" viewBox="0 0 4608 356.79" xmlns="http://www.w3.org/2000/svg" data-type="color">
    <g>
        <path d="M4608 299.35h-6v-3.11h-5v-2.48h-3.76v-4h9.14l3.62-12.32-42.14 3.65-52.56-4.08h-19.19v-4.19h-15.26v-9h-2.2v-3.18l-1.6 3.53H4472l-.85-3.85-.75 4.17h-16.83v-18.55h-1.49v-4.18h-.37l-.21-5.73-.16 5.73h-1l-.21-5.73-.16 5.73h-1.12l-.21-5.73-.16 5.73h-2.33l-.21-5.73-.16 5.73h-2l-.21-5.73-.16 5.73h-1.94l-.21-5.73-.16 5.73h-.7l-.21-5.73-.16 5.73h-.23v4.18h-1.92v18h-14.18v-2.21h-1.26l-.07-2.05-.06 2.05H4420l-.08-2.05-.06 2.05h-2.1l-.08-2.05-.05 2.05h-2l-.07-2-.06 2h-1.27v4.61l-3.55 1.88h-3.81l-6-2.38v-7.55h-11.77v3.5h-1.79v-6h-20.12v-2.98a6.55 6.55 0 0 0-5.46-6.45v-3.11l-1-.86-1 .86v3.09a6.54 6.54 0 0 0-5.61 6.47v2.48h-3.72v7.42l-1.54 4.8h-5.21v-2h-2.09v3.83h-5v-6.29h-12.83v-16.16h-15.14v15h-12.1v-1.75h-2.58v1.87h-1.51v-6.37h-5v7.21h-5.09v-4.62h1.69v-.75h-1.8v-7.28h-2.71v-3.21l-5.49-5.25-.79 1v-6.1h-2.34v-9.73h-2.51v-6l-2.63-2.75v-3.58l-2-2v-1.55l.4-.86.51-1.13.42-.92h-1.13v1.09h-.63l-1-.59-.91.63 1.46 1.67v1.79l-1.89 1.88v3.6l-2.42 2.88v6.09h-2.67v9.48h-2.13v7.76h-1.12l-3.42-3.46-5.63 4v2.7h-7.89v-4.34h-6.88v2.67h-1v-6.77h-2.08v-9.86h-2.3v-5.54l-2.75-2v-4.08l-1.84-1.75v-1.84h.67l1.25-.5v-1l-1.08-.33-.78.55-.43-.51-.67-.79-.21.54-.29.75-.33.79.54.57h.56v1.81l-2 1.6v4.26l-2.72 1.92v5.51H4211v10h-2v4.58h-1.86l-3.65 2.59v5h-3.34v3.73H4184v1.33h-7.17v-1.66h-19.58v2.59h-5.91l-5.57 1.79v2h-3.52v6.9h-2.13v-1.13h-2.45v1.2h-4.18v-2.26h-1.46v1.86h-2.66v2.25h-7.23v-4.71l1.32-1.92h-1.72v-6.57h-.6v1.77h-1v-5.74l-1.14-1.26-1.12-3-.8-3.84-1.46 6.43-1.06 2.25V255h-24v-13.17l3.36-1.73.83-2.12v-3.47h-4v-3.44h1.12v-4.66h-7.05v5h1v3.05h-4.07v3.62l1.12 1.73 3.35 1.79v12.48h-17.32v-5.82h-3.49v-11.41h-19.36v-1.27h-2.75v-3.49h-3v-2.22h-2.54v-2.43h-4.12v-2h-2.54v-8.8h-25.28v8.46h4.86v27h-19.78v-13.14h-11.32v3.81h-3.42v-16.82H3973v-2.86h-9.2v2.55h-2.12v-1.27h-20.41v-3h-9.2v21.27h-4.45v8.35h-6.13v4.34h-4.23v5.18h-2.65v-1.59h-11v1.48h-12.9v1.91h-3.81v-36.57h-3.9v-4.23h-24.75v4.13h-3.7v28.86H3842v-68.15h1.73v-4.2l-4.91-10h-3.47v-2.19h-4.17v-1.32h-2.48v1.32h-6.89v.68h-2.62v78.6h-26.56v-20.1h-66.47v-28.96h-10.4v-3.49h-10.08v3.49h-10.14v14.15h-1.39v35.63h-2.76v-5.53h-12.84v2.5H3677v1.58h-10.4v2.7h-7.39v-24.24h-1.91v-10.26h-17.58v-38.14h-2.24v1.32h-6v1.84h-6.59v-3h-5.13v-2.69h-1.44l-22.73 23.21v74.39h-11.44v8.15l-2.37-.22-.91-4h-2.37v-9.59h1.58v-1h-1.35v-5.08h.52v-2.54h-1.16v-4.39h-2v4.39h-.88v2.54h.88v5.08h-.88v1h.88v9.66h-3.7l-8-14.3v-4.29h-.71v4.16h-2.75v-3h-1.46v-7.61h-4.6v10.66h-2.61v-5.31h-1v5.31l-5 7.56h-11.6V160.46l-9.89-22v12.71l-17.25 2.16v69.44l4.08 1.82v40.91h-4.08v-7.15h-7.27v4.09H3497v-6.47h-8l-8.63 6.7-14.53-5.11v-19.92h2.27v-9.3H3466v-11.08h-4.65l-3.63 3.06v4.77l-5.91 4.2-11.16-6.73h-9.08l-1.7 2.16H3426v30.41h-3.07v18.61h-4v3.06h-5.34v-8.06l-3.29 2.27v5.11h-3.63v-45.16h-8.4v-5.11h-6.47v-2h-6.25v-1.93h-2.27v4.72h-9.88v5.33h-6.35v40.4H3362v-10.9h-2.73v-9.63h-13.17v11.92h-9.1v-4.77h-6.48v6.13H3314v-26l-4.08-2.95v-7.26l-2.73-1.81v-3.3l-.79-1.92-.57-4.09-.68 5v4.2l-1.93 2v7.15l-2.84 2.84v26.78h-5.9l-2.16-6.7v-6.42h-.5v6.46l-3.29 6.92h-3.29l-2.71-5.15h-12.43l-4.88 10.1h-16.86v-5.33H3247v-1.7h1v-28.3h-1.35v-1.52h1.35v-20.37h-1.6v-1.34h1.6v-13h-1.56v-1.88h1.56v-10.66h-1.27v-1.34h1.27v-6.21h-1.82v-1.38h1.82v-6.13h-10.28v3.33h-9.38v4.62h1v1.39h-.95v6.22h1.13v1.17h-1.13v11h1.5v1h-1.5v12.76h1.75v2h-1.75v19.72h1.1v2h-1.1v27.37h1.42v2.25h-1.5v10h-5v-4.47h-2.61l5.49-55.66a71.77 71.77 0 0 0 .45-8 73.3 73.3 0 0 0-.89-11.36l-9.4-50.51a4.28 4.28 0 0 0-5.33-4l-12.91 4.15a5.88 5.88 0 0 0-3.7 4.55 920.87 920.87 0 0 0-5.35 99.2q0 25 1.35 49.9h-31.2V139.72h-18.16v35.35h-7.41v64.15h-14.86v2.34h-8.32v7.75h-4.39v-49.89h-22.27v46.29l-14.86 7.87v-14.8h-3.46v-3.08h-9.63v3.27h-7.39v24.43h-10.31v-5.92h-15.31v6.35h-8.4v-6h-14.32V264h-10.5v-6.46h-13.52v6.29h-1.92v-4.32h-8.47v-6.43h-3.4v-1.67h-2.84v-7.47h-1.17v-2h-8.48v-2.5H2944v1.42h-3.34v-3h-2.34v-3.51h-4.51v-10.34h-21.92v21.32h-7.23v5.87h-16.61v3.44h-3.83v5.86h-5.18v4.39h-4.9v-12.77l-10.5-7.71v-1.67l-13.4.62v1.28h-2.84v-8h-3.66v27h-2.46v-32.63l-11.19-7.66v-1.41l-11.18 1.47v1.3h-2.11v-8.16h-3.63v66.25h-2.34v-69.73l-11.47-8.1v-.92l-9 1.6v1.19h-2.21v-6.65h-3.76v44.08l-1.89-13.12h-.5v-1.51h.3l-.8-5.54h-.72v-1.66h.48l-.09-.63v-3.42h-.34v-3.44h.34v-7.11h-45.07l-2.36 7.12h3.62v3.44h-4.77l-1.35 4.05h.94v1.66h-1.49l-1.84 5.54h.32v1.5h-.82l-.66 2h-22.77v6.1h-57.6v-79.1h-1v-11.58h-21.22v11.55h-.35v79.1h-94.46v12.94h-19.77v15.9h-9.12v-20.65h-10.74v-6.77h-26.86L2437.63 1.75l-1.85 10.68-3.42-12.39-.65 16-1.46-3.27-18.48 205.87h-15.28v-13.79h-15.63v12.16h-14.18v-18h-15.08v14.83H2338v4.11h-9.11v59.79h-8.53v-61.43h-55.13v9.75h-32.79V259h-9.52v-39.94h-30.62v43.48h-20.44v-41.69h-67.08l-10-8.36-21.65-7.2h-33.63l-3.78 1.21-2.47 5.1h.86l-5 5.74h1l-3.62 6.84h.9l-3.22 6.89h1.76l-2.16 7.43h2.06l-2.31 7h2.48l-1.56 7.65h3.56l-1.36 8.25h2.77v8.31h6.9v4.78h2v4.78h-161.77v-15.24h-32.8a8 8 0 0 0-3.28-6.39v-2.15l-.62-.65-.17-2.16-.1 2.14-.51.61v2.21a7.17 7.17 0 0 0-3.11 5.91v.49h-12.19v1.6h-18.89v-3.86h-33.76l-2.34-16.32-2.28 22h-1.44v-25.32q-.11-3.67-.1-7.35a262 262 0 0 1 10.87-74.69 111.51 111.51 0 0 0-70.3-14.11l-3.65 6.48a362.77 362.77 0 0 1 8.87 75.52h-14l.82 16.37h-1.2v-1.59h-2.07v-13h-15.49v8.59h-9.8v2.28h-13.33v-19.19h-28.85v12.19h-34.28v-3.65h-12.19v-41.63h-37.25v21.09h-3.19v-43.81l-15.16-32.18-15.5 84.61H1504v22.73h-4.51v9.12h-3.84v2.64h-4.4v-13.85H1480V236a216.76 216.76 0 0 0-11-68.36l-13.46-71H1445v24.71h-1.3v-3.37h-3.09v2.54h-1.31v-3.15h-2.54V97.13h-4.2V60.39h-5.35V32.48h-37.71v27.91h-16.82v36.74h-6.89v92.68h-21.44v-41.28l-1.46-.88h-8.26v-27.09l-1-.63h-22l-1.8 1.16v13l-8 .56-.52.94v13.23h-35.91v-9h-4.8v-10.64h-5.14v-4.45h-5.73v4.58H1244v31h-14.56v9.5h-3.85v13.83h-12.69v25.84h-5.7v-21.3l-4-4.8h-8.36l-3.82 3.82v22.28h-25.8v-21.3l-4-4.8h-8.35l-3.82 3.82v22.28h-30.51v-14.11H1117l-2-1.91h-1v-5.26l-4-4.8h-8.36l-3.82 3.82v8.08h-8.23v-7.1l-4-4.8h-8.36l-3.82 3.82v3.74h-3.12l-2 2.24v16.3h-4.88v-12.15h-1.51v-2l-2-1.91h-10.61v-8.39h-4v1.14H1041l-6.15-2.41h-5.15v8.47h-1.89v7.22h-.63v-1.77l-.91-1.15v-29.34h-9.49V99.64h-23.61v89h-3v-36.3H978v34.95h-2.71a36.28 36.28 0 0 1-3.26-15v-28.98h-4.89V99.74h-21.41v8.66H936v9.5h-17.57v60.9h-3.2v-9.38h-5.29v-23.11h-22.61v23.18h-19.89v-34.08h-37v-4.24H822v-9.53h-28.27v-13.36h-14.41v-7.64l-15-12.15-14.87 12v8.33h-3v-1h-34.68v10.77h-1.28v10.63h-5v-18.58h-23.21v-8.72H650v48.72h-15.79v-20.87h-19.76v17.11h-2.18v-14.67h-46.92v41.31h-14.83v12.34h-5.59v2.78h-1.06v-1.32h-6.16v3.51h-4v3.44h-6.35v-1.06h-4.57v1.59h-3.11v-10.9h-6.55v10.12h-2v-40.74l-1.85-4.3h-5.39l-5.89 3.31v1.53h-4.27v8.82h-15.41v18.9h-6v10.72h-2.28v-13h-10.13v6.67h-4.56v-8.82h-4.43v-1.37h-4.27v1.66h-8.86v25h-1.09l-2.16-14.95H434l-1.75 14.9h-6v-13.03h-3.86v-21.68h-33.46v18.19h-1.75v5.61h-3.87v5.2h-4.52v-6.8H374v-15.11h-8.76v15.07h-21.07v-2.16h-5.86v-6.78h-1.8v-7.22h-13v-4.5h-20.75v24.08h-5.25V171h-9.6l-2.53 9.25v12.3h-2.47v-1.66h-3.33v1.46h-3.73v-2.39h-12.24v-2h-7.68v-1.73h-2.18v-56.72h-5.1v-3.66h-8v3.66h-4.13v54.3h-6.72v-1.93h-5.06v-3.85h-3.06v3.79h-2.86v-32.33a3.57 3.57 0 0 0-3.55-3.21 3.66 3.66 0 0 0-1.52.34 30.31 30.31 0 0 0-10.58 16.9v13.45H199v-4.92h-10.7v12h-5.66v-18h-8.92v16h-6.12v-5.18h-34.23v-19.5h-17v26.08H103v-10.33h-4.6v-15.77H81.19v20.82H77.5v-3.79h-9.11v1.73h-5.46v-4.92h-7.66v-13.64h-3.12v-1H37.77v25h-5.19v-21.21H18v-3.86H0v200.31h4608Z" 
        fill="#e9e2cf" data-color="1"/>
    </g>
</svg>
