							<svg xmlns="http://www.w3.org/2000/svg" viewBox="0 0 290.56 147.71">
								<defs>
								<style>
								.cls-1{fill:none;stroke:#fff;stroke-miterlimit:10;stroke-width:0.26px;stroke-dasharray:4.09;}
								.cls-2{fill:#fff;}
								.cls-3{fill:#999;}
								.cls-4{fill:#31a5a6;}
								.cls-5{fill:#ffffff00}
								</style>
								</defs>
								
								<g id="Layer_2" data-name="Layer 2">
								<g id="Layer_1-2" data-name="Layer 1">
								<rect class="cls-5 fade-in lines fade-out" x="0.13" y="0.18" width="290.3" height="147.4"/>
								
								<path class="cls-1 fade-in lines fade-out" d="M289,64.78l-64.6,64.6-2.9-2.9-.4-.4-48.9-48.9-12.4-12.4L224.38.18l7.9,7.9,12.1,12.1Z"/>
								<path class="cls-1 fade-in lines fade-out" d="M80.88,54.38a37.3,37.3,0,1,0,37.3,37.3h0A37.3,37.3,0,0,0,80.88,54.38Zm0,62.9a25.6,25.6,0,1,1,25.6-25.6h0A25.59,25.59,0,0,1,80.88,117.28Z"/>
								<path class="cls-1 fade-in lines fade-out" d="M206.68,54.38A37.3,37.3,0,1,0,244,91.68a37.3,37.3,0,0,0-37.3-37.3Zm0,62.9a25.6,25.6,0,1,1,25.6-25.6h0A25.65,25.65,0,0,1,206.68,117.28Z"/>
								<path class="cls-1 fade-in lines fade-out" d="M143.78,54.38a37.3,37.3,0,1,0,37.3,37.3h0A37.36,37.36,0,0,0,143.78,54.38Zm0,62.9a25.6,25.6,0,1,1,25.6-25.6h0A25.65,25.65,0,0,1,143.78,117.28Z"/>
								<path class="cls-1 fade-in lines fade-out" d="M187.68,106.58a46.42,46.42,0,1,1-29-58.9,47,47,0,0,1,17.9,11.1A46.27,46.27,0,0,1,187.68,106.58Z"/>
								<path class="cls-1 fade-in lines fade-out" d="M244,25.58V129H43.58V25.58Z"/>
								<path class="cls-1 fade-in lines fade-out" d="M140.58,25.58l61.5,61.5-51,51"/>
								<path class="cls-1 fade-in lines fade-out" d="M152.58,25.58l34.3,34.3,8.6,8.6L214,87l-24.1,24.1-8.3,8.3-18.2,18.2"/>
								<path class="cls-1 fade-in lines fade-out" d="M175.48,137.68l11.6-11.6,1.6-1.6"/>
								<path class="cls-1 fade-in lines fade-out" d="M197.48,115.68l28.6-28.6-21-21-1.3-1.3-8.5-8.5-1.8-1.9-28.8-28.8"/>
								<g id="Layer_2-2" data-name="Layer 2">
								
								<g id="Layer_1-2-2" data-name="Layer 1-2">
								<path class="cls-2 Factory fade-in" d="M106.38,119.08a37.36,37.36,0,1,1,0-54.8l-5.9,10.8a25.68,25.68,0,1,0-2.9,36.2,39.67,39.67,0,0,0,2.9-2.9Z"/>
								<path class="cls-3 A fade-in" d="M188.88,109.88a25.81,25.81,0,0,1-7.5-18.2V60.08h-11.7v4.5a36,36,0,0,0-5.8-4.5,37.34,37.34,0,1,0,.1,63.2,36.61,36.61,0,0,0,11.6-11.6,44.76,44.76,0,0,0,5.1,6.4l.7.7.5.5,8.3-8.3A10.9,10.9,0,0,1,188.88,109.88Zm-33.5,4.9a24.75,24.75,0,0,1-11.3,2.7,25.92,25.92,0,1,1,11.3-2.7Z"/>
								<path class="cls-4 D fade-in" d="M244.08,19.78v72a37.34,37.34,0,0,1-55.3,32.8l8.8-8.8a25.77,25.77,0,1,0,10.1-49.7h-1a7.57,7.57,0,0,0-1.5.1,27.23,27.23,0,0,0-11.8,3.7,17.83,17.83,0,0,0-3.3,2.3V58.48a35.39,35.39,0,0,1,16.6-4,37.17,37.17,0,0,1,25.7,10.3V8.08Z"/>
								</g>
								</g>
								
								<polygon class="cls-2 Factory fade-in " points="84.78 147.28 86.18 147.28 86.18 143.68 89.58 143.68 89.58 142.38 86.18 142.38 86.18 139.88 90.08 139.88 90.08 138.48 84.78 138.48 84.78 147.28"/>
								<path class="cls-2 Factory fade-in" d="M105,138.08l-3.9,9.1h1.4l.8-2.1h3.2l.8,2.1h1.6l-3.9-9.1Zm-1.2,5.9,1.1-2.8L106,144Z"/>
								<path class="cls-2 Factory fade-in" d="M125.88,145.88a3.7,3.7,0,0,1-2.4,0,2.63,2.63,0,0,1-1.5-1.6,5.07,5.07,0,0,1-.2-1.3,3.1,3.1,0,0,1,.9-2.2,5.5,5.5,0,0,1,.9-.7,2,2,0,0,1,1.1-.2,3.59,3.59,0,0,1,1.1.2,2.18,2.18,0,0,1,.8.5l.6-1.3a3.7,3.7,0,0,0-1.1-.5,3.89,3.89,0,0,0-1.5-.2,4.67,4.67,0,0,0-1.7.3,4.51,4.51,0,0,0-1.4,1,4.19,4.19,0,0,0-.9,1.4,5.66,5.66,0,0,0-.3,1.8,5.08,5.08,0,0,0,.3,1.7,4.19,4.19,0,0,0,.9,1.4,4.51,4.51,0,0,0,1.4,1,5.84,5.84,0,0,0,1.8.4,4.87,4.87,0,0,0,1.2-.1l.9-.3.6-.3-.6-1.3A1.61,1.61,0,0,0,125.88,145.88Z"/>
								<polygon class="cls-2 Factory fade-in" points="139.38 139.88 141.58 139.88 141.58 147.28 142.98 147.28 142.98 139.88 145.28 139.88 145.28 138.48 139.38 138.48 139.38 139.88"/>
								<path class="cls-2 Factory fade-in" d="M164.68,139.78a4.51,4.51,0,0,0-1.4-1,4.71,4.71,0,0,0-1.7-.4,3.92,3.92,0,0,0-1.8.4,5.23,5.23,0,0,0-2.4,2.4,3.23,3.23,0,0,0-.3,1.7,5.66,5.66,0,0,0,.3,1.8,4.51,4.51,0,0,0,1,1.4,4.19,4.19,0,0,0,1.4.9,4.27,4.27,0,0,0,3.5,0,5.23,5.23,0,0,0,2.4-2.4,5.26,5.26,0,0,0,.4-1.8,3.29,3.29,0,0,0-.4-1.7A5.67,5.67,0,0,0,164.68,139.78Zm-.3,4.4a3.51,3.51,0,0,1-1.7,1.7,2.54,2.54,0,0,1-1.2.2,3.1,3.1,0,0,1-2.2-.9,3.59,3.59,0,0,1-.7-1,2.54,2.54,0,0,1-.2-1.2,5,5,0,0,1,.2-1.2,3.51,3.51,0,0,1,1.7-1.7,3.31,3.31,0,0,1,2.4,0,3.51,3.51,0,0,1,1.7,1.7,2.54,2.54,0,0,1,.2,1.2,5,5,0,0,1-.2,1.2Z"/>
								<path class="cls-2 Factory fade-in" d="M183.78,143.28a4.05,4.05,0,0,0,.5-.9,3.55,3.55,0,0,0,.2-1,5,5,0,0,0-.2-1.2,4.7,4.7,0,0,0-.6-.9,3.13,3.13,0,0,0-1-.5,5.85,5.85,0,0,0-1.3-.2h-2.5v8.8h1.4v-3.1h1.4l2,3.1h1.6l-2.1-3.4A4.35,4.35,0,0,0,183.78,143.28Zm-3.6-3.4h1.3a1.2,1.2,0,0,1,.8.2,1,1,0,0,1,.5.4,2.19,2.19,0,0,1,.3.5c0,.2.1.3.1.5a.9.9,0,0,1-.1.5,1.33,1.33,0,0,1-.3.5,1,1,0,0,1-.5.4,1.06,1.06,0,0,1-.8.1h-1.3Z"/>
								<polygon class="cls-2 Factory fade-in" points="202.48 138.48 200.18 142.88 197.98 138.48 196.18 138.48 199.48 144.48 199.48 147.28 200.88 147.28 200.88 144.48 204.18 138.48 202.48 138.48"/>
								</g>
								</g>
							</svg>	