<svg xmlns="http://www.w3.org/2000/svg" viewBox="0 0 290.56 147.71">
<defs>
<style>.cls-1{fill:none;stroke:#fff;stroke-miterlimit:10;stroke-width:0.26px;stroke-dasharray:4.09;}.cls-2{fill:#fff;}.cls-3{fill:#999;}.cls-4{fill:#31a5a6;}
</style>
</defs>

<g id="Layer_2" data-name="Layer 2">
<g id="Layer_1-2" data-name="Layer 1">
<rect class="cls-1" x="0.13" y="0.18" width="290.3" height="147.4"/>

<path class="cls-1" d="M289,64.78l-64.6,64.6-2.9-2.9-.4-.4-48.9-48.9-12.4-12.4L224.38.18l7.9,7.9,12.1,12.1Z"/>
<path class="cls-1" d="M80.88,54.38a37.3,37.3,0,1,0,37.3,37.3h0A37.3,37.3,0,0,0,80.88,54.38Zm0,62.9a25.6,25.6,0,1,1,25.6-25.6h0A25.59,25.59,0,0,1,80.88,117.28Z"/>
<path class="cls-1" d="M206.68,54.38A37.3,37.3,0,1,0,244,91.68a37.3,37.3,0,0,0-37.3-37.3Zm0,62.9a25.6,25.6,0,1,1,25.6-25.6h0A25.65,25.65,0,0,1,206.68,117.28Z"/>
<path class="cls-1" d="M143.78,54.38a37.3,37.3,0,1,0,37.3,37.3h0A37.36,37.36,0,0,0,143.78,54.38Zm0,62.9a25.6,25.6,0,1,1,25.6-25.6h0A25.65,25.65,0,0,1,143.78,117.28Z"/>
<path class="cls-1" d="M187.68,106.58a46.42,46.42,0,1,1-29-58.9,47,47,0,0,1,17.9,11.1A46.27,46.27,0,0,1,187.68,106.58Z"/>
<path class="cls-1" d="M244,25.58V129H43.58V25.58Z"/>
<path class="cls-1" d="M140.58,25.58l61.5,61.5-51,51"/>
<path class="cls-1" d="M152.58,25.58l34.3,34.3,8.6,8.6L214,87l-24.1,24.1-8.3,8.3-18.2,18.2"/>
<path class="cls-1" d="M175.48,137.68l11.6-11.6,1.6-1.6"/>
<path class="cls-1" d="M197.48,115.68l28.6-28.6-21-21-1.3-1.3-8.5-8.5-1.8-1.9-28.8-28.8"/>
<g id="Layer_2-2" data-name="Layer 2">

<g id="Layer_1-2-2" data-name="Layer 1-2">
<path class="cls-2" d="M106.38,119.08a37.36,37.36,0,1,1,0-54.8l-5.9,10.8a25.68,25.68,0,1,0-2.9,36.2,39.67,39.67,0,0,0,2.9-2.9Z"/>
<path class="cls-3" d="M188.88,109.88a25.81,25.81,0,0,1-7.5-18.2V60.08h-11.7v4.5a36,36,0,0,0-5.8-4.5,37.34,37.34,0,1,0,.1,63.2,36.61,36.61,0,0,0,11.6-11.6,44.76,44.76,0,0,0,5.1,6.4l.7.7.5.5,8.3-8.3A10.9,10.9,0,0,1,188.88,109.88Zm-33.5,4.9a24.75,24.75,0,0,1-11.3,2.7,25.92,25.92,0,1,1,11.3-2.7Z"/>
<path class="cls-4" d="M244.08,19.78v72a37.34,37.34,0,0,1-55.3,32.8l8.8-8.8a25.77,25.77,0,1,0,10.1-49.7h-1a7.57,7.57,0,0,0-1.5.1,27.23,27.23,0,0,0-11.8,3.7,17.83,17.83,0,0,0-3.3,2.3V58.48a35.39,35.39,0,0,1,16.6-4,37.17,37.17,0,0,1,25.7,10.3V8.08Z"/>
</g>
</g>

<polygon class="cls-2" points="84.78 147.28 86.18 147.28 86.18 143.68 89.58 143.68 89.58 142.38 86.18 142.38 86.18 139.88 90.08 139.88 90.08 138.48 84.78 138.48 84.78 147.28"/>
<path class="cls-2" d="M105,138.08l-3.9,9.1h1.4l.8-2.1h3.2l.8,2.1h1.6l-3.9-9.1Zm-1.2,5.9,1.1-2.8L106,144Z"/>
<path class="cls-2" d="M125.88,145.88a3.7,3.7,0,0,1-2.4,0,2.63,2.63,0,0,1-1.5-1.6,5.07,5.07,0,0,1-.2-1.3,3.1,3.1,0,0,1,.9-2.2,5.5,5.5,0,0,1,.9-.7,2,2,0,0,1,1.1-.2,3.59,3.59,0,0,1,1.1.2,2.18,2.18,0,0,1,.8.5l.6-1.3a3.7,3.7,0,0,0-1.1-.5,3.89,3.89,0,0,0-1.5-.2,4.67,4.67,0,0,0-1.7.3,4.51,4.51,0,0,0-1.4,1,4.19,4.19,0,0,0-.9,1.4,5.66,5.66,0,0,0-.3,1.8,5.08,5.08,0,0,0,.3,1.7,4.19,4.19,0,0,0,.9,1.4,4.51,4.51,0,0,0,1.4,1,5.84,5.84,0,0,0,1.8.4,4.87,4.87,0,0,0,1.2-.1l.9-.3.6-.3-.6-1.3A1.61,1.61,0,0,0,125.88,145.88Z"/>
<polygon class="cls-2" points="139.38 139.88 141.58 139.88 141.58 147.28 142.98 147.28 142.98 139.88 145.28 139.88 145.28 138.48 139.38 138.48 139.38 139.88"/>
<path class="cls-2" d="M164.68,139.78a4.51,4.51,0,0,0-1.4-1,4.71,4.71,0,0,0-1.7-.4,3.92,3.92,0,0,0-1.8.4,5.23,5.23,0,0,0-2.4,2.4,3.23,3.23,0,0,0-.3,1.7,5.66,5.66,0,0,0,.3,1.8,4.51,4.51,0,0,0,1,1.4,4.19,4.19,0,0,0,1.4.9,4.27,4.27,0,0,0,3.5,0,5.23,5.23,0,0,0,2.4-2.4,5.26,5.26,0,0,0,.4-1.8,3.29,3.29,0,0,0-.4-1.7A5.67,5.67,0,0,0,164.68,139.78Zm-.3,4.4a3.51,3.51,0,0,1-1.7,1.7,2.54,2.54,0,0,1-1.2.2,3.1,3.1,0,0,1-2.2-.9,3.59,3.59,0,0,1-.7-1,2.54,2.54,0,0,1-.2-1.2,5,5,0,0,1,.2-1.2,3.51,3.51,0,0,1,1.7-1.7,3.31,3.31,0,0,1,2.4,0,3.51,3.51,0,0,1,1.7,1.7,2.54,2.54,0,0,1,.2,1.2,5,5,0,0,1-.2,1.2Z"/>
<path class="cls-2" d="M183.78,143.28a4.05,4.05,0,0,0,.5-.9,3.55,3.55,0,0,0,.2-1,5,5,0,0,0-.2-1.2,4.7,4.7,0,0,0-.6-.9,3.13,3.13,0,0,0-1-.5,5.85,5.85,0,0,0-1.3-.2h-2.5v8.8h1.4v-3.1h1.4l2,3.1h1.6l-2.1-3.4A4.35,4.35,0,0,0,183.78,143.28Zm-3.6-3.4h1.3a1.2,1.2,0,0,1,.8.2,1,1,0,0,1,.5.4,2.19,2.19,0,0,1,.3.5c0,.2.1.3.1.5a.9.9,0,0,1-.1.5,1.33,1.33,0,0,1-.3.5,1,1,0,0,1-.5.4,1.06,1.06,0,0,1-.8.1h-1.3Z"/>
<polygon class="cls-2" points="202.48 138.48 200.18 142.88 197.98 138.48 196.18 138.48 199.48 144.48 199.48 147.28 200.88 147.28 200.88 144.48 204.18 138.48 202.48 138.48"/>
</g>
</g>
</svg>

<svg version="1.1" xmlns="http://www.w3.org/2000/svg" xmlns:xlink="http://www.w3.org/1999/xlink" x="0px" y="0px" width="290.6px"
	 height="147.7px" viewBox="0 0 290.6 147.7" style="overflow:visible;enable-background:new 0 0 290.6 147.7;"
	 xml:space="preserve">
<style type="text/css">
	.st0{fill:none;stroke:#FFFFFF;stroke-width:0.26;stroke-miterlimit:10;stroke-dasharray:4.09;}
	.st1{fill:#FFFFFF;}
	.st2{fill:#999999;}
	.st3{fill:#31A5A6;}
</style>
<defs>
</defs>
<rect x="0.1" y="0.2" class="st0" width="290.3" height="147.4"/>
<g>
	<g>
		<path class="st0" d="M289,64.8l-64.6,64.6l-2.9-2.9l-0.4-0.4l-48.9-48.9l-12.4-12.4l64.6-64.6l7.9,7.9l12.1,12.1L289,64.8z"/>
		<path class="st0" d="M80.9,54.4c-20.6,0-37.3,16.7-37.3,37.3S60.3,129,80.9,129s37.3-16.7,37.3-37.3l0,0
			C118.2,71.1,101.5,54.4,80.9,54.4z M80.9,117.3c-14.2,0-25.6-11.5-25.6-25.6c0-14.2,11.5-25.6,25.6-25.6
			C95,66,106.5,77.5,106.5,91.7l0,0C106.5,105.8,95.1,117.3,80.9,117.3z"/>
		<path class="st0" d="M206.7,54.4c-20.6,0-37.3,16.7-37.3,37.3s16.7,37.3,37.3,37.3S244,112.3,244,91.7S227.3,54.4,206.7,54.4
			L206.7,54.4z M206.7,117.3c-14.2,0-25.6-11.5-25.6-25.6s11.5-25.6,25.6-25.6c14.2,0,25.6,11.5,25.6,25.6l0,0
			C232.3,105.8,220.8,117.3,206.7,117.3z"/>
		<path class="st0" d="M143.8,54.4c-20.6,0-37.3,16.7-37.3,37.3s16.7,37.3,37.3,37.3s37.3-16.7,37.3-37.3l0,0
			C181,71.1,164.4,54.4,143.8,54.4z M143.8,117.3c-14.2,0-25.6-11.5-25.6-25.6s11.5-25.6,25.6-25.6c14.2,0,25.6,11.5,25.6,25.6l0,0
			C169.4,105.8,157.9,117.3,143.8,117.3z"/>
		<path class="st0" d="M187.7,106.6c-8.2,24.3-34.6,37.3-58.9,29s-37.3-34.6-29-58.9s34.6-37.3,58.9-29c6.7,2.3,12.9,6.1,17.9,11.1
			C189.1,71.3,193.5,89.9,187.7,106.6z"/>
		<path class="st0" d="M244,25.6V129H43.6V25.6H244z"/>
		<path class="st0" d="M140.6,25.6l61.5,61.5l-51,51"/>
		<path class="st0" d="M152.6,25.6l34.3,34.3l8.6,8.6L214,87l-24.1,24.1l-8.3,8.3l-18.2,18.2"/>
		<path class="st0" d="M175.5,137.7l11.6-11.6l1.6-1.6"/>
		<path class="st0" d="M197.5,115.7l28.6-28.6l-21-21l-1.3-1.3l-8.5-8.5l-1.8-1.9l-28.8-28.8"/>
	</g>
</g>
<g id="Layer_2_1_">
	<g id="Layer_1-2_1_">
		<path class="st1" d="M106.4,119.1c-15.1,14-38.8,13.1-52.8-2s-13.1-38.8,2-52.8c14.3-13.3,36.5-13.3,50.8,0l-5.9,10.8
			C91.3,64.3,75.1,63,64.3,72.2s-12.1,25.4-2.9,36.2s25.4,12.1,36.2,2.9c1-0.9,2-1.9,2.9-2.9L106.4,119.1z"/>
		<path class="st2" d="M188.9,109.9c-4.8-4.8-7.5-11.4-7.5-18.2V60.1h-11.7v4.5c-1.8-1.7-3.7-3.2-5.8-4.5
			c-17.4-11-40.5-5.7-51.5,11.7s-5.8,40.5,11.7,51.5c12.2,7.7,27.7,7.7,39.9,0c2.1-1.3,4-2.8,5.8-4.5c2.2-2.1,4.2-4.5,5.8-7.1
			c1.5,2.3,3.2,4.4,5.1,6.4c0.2,0.2,0.5,0.5,0.7,0.7l0.5,0.5l8.3-8.3C189.8,110.7,189.4,110.4,188.9,109.9z M155.4,114.8
			c-3.5,1.8-7.4,2.7-11.3,2.7c-14.2,0-25.7-11.5-25.8-25.7S129.8,66.1,144,66s25.7,11.5,25.8,25.7
			C169.7,101.5,164.2,110.5,155.4,114.8z"/>
		<path class="st3" d="M244.1,19.8v72c0,20.6-16.7,37.4-37.4,37.4c-6.3,0-12.4-1.6-17.9-4.6l8.8-8.8c2.9,1.1,6,1.7,9.1,1.7
			c14.2,0.3,25.9-11,26.2-25.2s-11-25.9-25.2-26.2c-0.3,0-0.7,0-1,0c-0.5,0-1,0-1.5,0.1c-4.2,0.3-8.2,1.6-11.8,3.7
			c-1.2,0.6-2.2,1.4-3.3,2.3V58.5c1.7-0.9,3.4-1.6,5.2-2.2c3.7-1.2,7.5-1.9,11.4-1.8c9.6,0,18.8,3.7,25.7,10.3V8.1L244.1,19.8z"/>
	</g>
</g>
<polygon class="st1" points="84.8,147.3 86.2,147.3 86.2,143.7 89.6,143.7 89.6,142.4 86.2,142.4 86.2,139.9 90.1,139.9 90.1,138.5 
	84.8,138.5 "/>
<path class="st1" d="M105,138.1l-3.9,9.1h1.4l0.8-2.1h3.2l0.8,2.1h1.6L105,138.1L105,138.1z M103.8,144l1.1-2.8l1.1,2.8H103.8z"/>
<path class="st1" d="M125.9,145.9c-0.4,0.1-0.8,0.2-1.2,0.2c-0.4,0-0.8-0.1-1.2-0.2c-0.7-0.3-1.3-0.9-1.5-1.6
	c-0.1-0.4-0.2-0.8-0.2-1.3c0-0.8,0.3-1.6,0.9-2.2c0.3-0.3,0.6-0.5,0.9-0.7s0.7-0.2,1.1-0.2s0.8,0.1,1.1,0.2c0.3,0.1,0.6,0.3,0.8,0.5
	l0.6-1.3c-0.3-0.2-0.7-0.4-1.1-0.5c-0.5-0.2-1-0.2-1.5-0.2c-0.6,0-1.2,0.1-1.7,0.3s-1,0.6-1.4,1s-0.7,0.9-0.9,1.4
	c-0.2,0.6-0.3,1.2-0.3,1.8s0.1,1.1,0.3,1.7c0.2,0.5,0.5,1,0.9,1.4s0.9,0.8,1.4,1c0.6,0.2,1.2,0.4,1.8,0.4c0.4,0,0.8,0,1.2-0.1
	c0.3-0.1,0.6-0.2,0.9-0.3c0.2-0.1,0.4-0.2,0.6-0.3l-0.6-1.3C126.5,145.6,126.2,145.7,125.9,145.9z"/>
<polygon class="st1" points="139.4,139.9 141.6,139.9 141.6,147.3 143,147.3 143,139.9 145.3,139.9 145.3,138.5 139.4,138.5 "/>
<path class="st1" d="M164.7,139.8c-0.4-0.4-0.9-0.8-1.4-1c-0.5-0.2-1.1-0.4-1.7-0.4c-0.6,0-1.2,0.1-1.8,0.4c-0.5,0.2-1,0.6-1.4,1
	c-0.4,0.4-0.8,0.9-1,1.4s-0.4,1.1-0.3,1.7c0,0.6,0.1,1.2,0.3,1.8c0.2,0.5,0.6,1,1,1.4c0.4,0.4,0.9,0.7,1.4,0.9
	c1.1,0.5,2.4,0.5,3.5,0c0.5-0.2,1-0.6,1.4-1c0.4-0.4,0.8-0.9,1-1.4c0.2-0.6,0.4-1.1,0.4-1.8c0-0.6-0.1-1.2-0.4-1.7
	C165.5,140.7,165.1,140.2,164.7,139.8z M164.4,144.2c-0.2,0.4-0.4,0.7-0.7,1s-0.6,0.5-1,0.7c-0.4,0.2-0.8,0.2-1.2,0.2
	c-0.8,0-1.6-0.3-2.2-0.9c-0.3-0.3-0.5-0.6-0.7-1s-0.2-0.8-0.2-1.2s0.1-0.8,0.2-1.2c0.2-0.4,0.4-0.7,0.7-1s0.6-0.5,1-0.7
	c0.8-0.3,1.6-0.3,2.4,0c0.4,0.2,0.7,0.4,1,0.7c0.3,0.3,0.5,0.6,0.7,1s0.2,0.8,0.2,1.2S164.5,143.8,164.4,144.2L164.4,144.2z"/>
<path class="st1" d="M183.8,143.3c0.2-0.3,0.4-0.6,0.5-0.9c0.1-0.3,0.2-0.7,0.2-1c0-0.4-0.1-0.8-0.2-1.2c-0.1-0.3-0.4-0.6-0.6-0.9
	c-0.3-0.2-0.6-0.4-1-0.5s-0.9-0.2-1.3-0.2h-2.5v8.8h1.4v-3.1h1.4l2,3.1h1.6l-2.1-3.4C183.4,143.8,183.6,143.6,183.8,143.3z
	 M180.2,139.9h1.3c0.3,0,0.5,0,0.8,0.2c0.2,0.1,0.4,0.2,0.5,0.4c0.1,0.1,0.2,0.3,0.3,0.5c0,0.2,0.1,0.3,0.1,0.5s0,0.3-0.1,0.5
	s-0.1,0.3-0.3,0.5c-0.1,0.2-0.3,0.3-0.5,0.4c-0.2,0.1-0.5,0.2-0.8,0.1h-1.3V139.9z"/>
<polygon class="st1" points="202.5,138.5 200.2,142.9 198,138.5 196.2,138.5 199.5,144.5 199.5,147.3 200.9,147.3 200.9,144.5 
	204.2,138.5 "/>
</svg>