<?xml version="1.0" encoding="utf-8"?>
<!-- Generator: Adobe Illustrator 25.0.0, SVG Export Plug-In . SVG Version: 6.00 Build 0)  -->
<svg version="1.1" id="Layer_1" xmlns="http://www.w3.org/2000/svg" xmlns:xlink="http://www.w3.org/1999/xlink" x="0px" y="0px"
	 viewBox="0 0 200.6 139.3" style="enable-background:new 0 0 200.6 139.3;" xml:space="preserve">
<style type="text/css">
	.st0{fill:#FFFFFF;}
</style>
<g id="Layer_2_1_">
	<g id="Layer_1-2">
		<path class="st0" d="M145.4,101.8c-4.8-4.8-7.5-11.4-7.5-18.2V52h-11.7v4.5c-1.8-1.7-3.7-3.2-5.8-4.5c-17.5-11-40.5-5.8-51.5,11.7
			s-5.8,40.5,11.7,51.5c12.2,7.7,27.7,7.7,39.9,0c2.1-1.3,4-2.8,5.8-4.5c2.2-2.1,4.2-4.5,5.8-7.1c1.5,2.3,3.2,4.4,5.1,6.4
			c0.2,0.2,0.5,0.5,0.7,0.7l0.5,0.5l8.3-8.3C146.2,102.6,145.8,102.2,145.4,101.8z M111.8,106.7c-3.5,1.8-7.4,2.7-11.3,2.7
			c-14.2,0-25.7-11.5-25.8-25.7s11.5-25.7,25.7-25.8c14.2,0,25.7,11.5,25.8,25.7C126.2,93.4,120.6,102.3,111.8,106.7z"/>
		<path class="st0" d="M56.9,100.3c-9.2,10.8-25.4,12.1-36.2,2.9S8.6,77.8,17.8,67s25.4-12.1,36.2-2.9c1,0.9,2,1.8,2.9,2.9l5.8-10.7
			c-15.1-14-38.8-13.1-52.8,2S-3.2,97,11.9,111c14.3,13.3,36.5,13.3,50.8,0L56.9,100.3z"/>
		<polygon class="st0" points="41.2,139.2 42.6,139.2 42.6,135.6 46,135.6 46,134.2 42.6,134.2 42.6,131.8 46.5,131.8 46.5,130.4 
			41.2,130.4 		"/>
		<path class="st0" d="M61.4,130l-3.9,9.1h1.4l0.8-2.1h3.2l0.8,2.1h1.6L61.4,130L61.4,130z M60.2,135.9l1.1-2.8l1.1,2.8H60.2z"/>
		<path class="st0" d="M82.3,137.7c-0.4,0.1-0.8,0.2-1.2,0.2c-0.4,0-0.8-0.1-1.2-0.2c-0.7-0.3-1.3-0.9-1.5-1.6
			c-0.1-0.4-0.2-0.8-0.2-1.3c0-0.8,0.3-1.6,0.9-2.2c0.3-0.3,0.6-0.5,0.9-0.7c0.3-0.2,0.7-0.2,1.1-0.2c0.4,0,0.8,0.1,1.1,0.2
			c0.3,0.1,0.6,0.3,0.8,0.5l0.6-1.3c-0.3-0.2-0.7-0.4-1.1-0.5c-0.5-0.2-1-0.2-1.5-0.2c-0.6,0-1.2,0.1-1.7,0.3c-0.5,0.2-1,0.6-1.4,1
			c-0.4,0.4-0.7,0.9-0.9,1.4c-0.2,0.6-0.3,1.2-0.3,1.8c0,0.6,0.1,1.1,0.3,1.7c0.2,0.5,0.5,1,0.9,1.4c0.4,0.4,0.9,0.8,1.4,1
			c0.6,0.2,1.2,0.4,1.8,0.4c0.4,0,0.8,0,1.2-0.1c0.3-0.1,0.6-0.2,0.9-0.3c0.2-0.1,0.4-0.2,0.6-0.3l-0.6-1.3
			C82.9,137.4,82.6,137.6,82.3,137.7z"/>
		<polygon class="st0" points="95.8,131.8 98,131.8 98,139.2 99.4,139.2 99.4,131.8 101.7,131.8 101.7,130.4 95.8,130.4 		"/>
		<path class="st0" d="M121.1,131.6c-0.4-0.4-0.9-0.8-1.4-1c-0.5-0.2-1.1-0.4-1.7-0.4c-0.6,0-1.2,0.1-1.8,0.4c-0.5,0.2-1,0.6-1.4,1
			c-0.4,0.4-0.8,0.9-1,1.4c-0.2,0.5-0.4,1.1-0.3,1.7c0,0.6,0.1,1.2,0.3,1.8c0.2,0.5,0.6,1,1,1.4c0.4,0.4,0.9,0.7,1.4,0.9
			c1.1,0.5,2.4,0.5,3.5,0c0.5-0.2,1-0.6,1.4-1c0.4-0.4,0.8-0.9,1-1.4c0.2-0.6,0.4-1.1,0.4-1.8c0-0.6-0.1-1.2-0.4-1.7
			C121.9,132.5,121.6,132,121.1,131.6z M120.8,136c-0.2,0.4-0.4,0.7-0.7,1c-0.3,0.3-0.6,0.5-1,0.7c-0.4,0.2-0.8,0.2-1.2,0.2
			c-0.8,0-1.6-0.3-2.2-0.9c-0.3-0.3-0.5-0.6-0.7-1c-0.2-0.4-0.2-0.8-0.2-1.2c0-0.4,0.1-0.8,0.2-1.2c0.2-0.4,0.4-0.7,0.7-1
			c0.3-0.3,0.6-0.5,1-0.7c0.8-0.3,1.6-0.3,2.4,0c0.4,0.2,0.7,0.4,1,0.7c0.3,0.3,0.5,0.6,0.7,1c0.2,0.4,0.2,0.8,0.2,1.2
			C121,135.2,120.9,135.6,120.8,136L120.8,136z"/>
		<path class="st0" d="M140.3,135.2c0.2-0.3,0.4-0.6,0.5-0.9c0.1-0.3,0.2-0.7,0.2-1c0-0.4-0.1-0.8-0.2-1.2c-0.1-0.3-0.4-0.6-0.6-0.9
			c-0.3-0.2-0.6-0.4-1-0.5c-0.4-0.1-0.9-0.2-1.3-0.2h-2.5v8.8h1.4v-3.1h1.4l2,3.1h1.6l-2.1-3.4C139.8,135.7,140,135.5,140.3,135.2z
			 M136.6,131.8h1.3c0.3,0,0.5,0,0.8,0.2c0.2,0.1,0.4,0.2,0.5,0.4c0.1,0.1,0.2,0.3,0.2,0.5c0,0.2,0.1,0.3,0.1,0.5
			c0,0.2,0,0.3-0.1,0.5c-0.1,0.2-0.1,0.3-0.2,0.5c-0.1,0.2-0.3,0.3-0.5,0.4c-0.2,0.1-0.5,0.2-0.8,0.1h-1.2V131.8z"/>
		<polygon class="st0" points="158.9,130.4 156.7,134.7 154.4,130.4 152.7,130.4 155.9,136.3 155.9,139.2 157.3,139.2 157.3,136.3 
			160.6,130.4 		"/>
		<path class="st0" d="M200.6,11.7v72c0,20.6-16.7,37.4-37.4,37.4c-6.3,0-12.4-1.6-17.9-4.6l8.8-8.8c2.9,1.1,6,1.7,9.1,1.7
			c14.2,0.3,25.9-11,26.2-25.2c0.3-14.2-11-25.9-25.2-26.2c-0.3,0-0.7,0-1,0c-0.5,0-1,0-1.5,0.1c-4.2,0.3-8.2,1.6-11.8,3.7
			c-1.2,0.6-2.2,1.4-3.2,2.3V50.3c1.7-0.9,3.4-1.6,5.2-2.2c3.7-1.2,7.5-1.9,11.4-1.8c9.6,0,18.8,3.7,25.7,10.3V0L200.6,11.7z"/>
	</g>
</g>
</svg>
